<svg width="18" height="20" viewBox="0 0 18 20" fill="none" xmlns="http://www.w3.org/2000/svg">
<path d="M16.3224 0.128544L14.3889 2.06205H10.7917L8.85817 0.128544C8.79477 0.0663996 8.7144 0.0244119 8.62717 0.00787263C8.53995 -0.0086666 8.44979 0.000982819 8.36804 0.0356047C8.28629 0.0702266 8.21663 0.128272 8.16782 0.202424C8.119 0.276577 8.09324 0.363519 8.09376 0.452293V5.20961C8.09376 6.40216 8.5675 7.54587 9.41076 8.38913C10.254 9.23239 11.3977 9.70613 12.5903 9.70613C13.7828 9.70613 14.9265 9.23239 15.7698 8.38913C16.6131 7.54587 17.0868 6.40216 17.0868 5.20961V0.452293C17.0873 0.363519 17.0615 0.276577 17.0127 0.202424C16.9639 0.128272 16.8943 0.0702266 16.8125 0.0356047C16.7308 0.000982819 16.6406 -0.0086666 16.5534 0.00787263C16.4662 0.0244119 16.3858 0.0663996 16.3224 0.128544ZM10.7917 6.10891C10.6138 6.10891 10.4399 6.05617 10.292 5.95735C10.1442 5.85854 10.0289 5.71809 9.96082 5.55376C9.89275 5.38943 9.87495 5.20861 9.90965 5.03417C9.94434 4.85972 10.03 4.69948 10.1558 4.57371C10.2815 4.44794 10.4418 4.36229 10.6162 4.32759C10.7907 4.29289 10.9715 4.3107 11.1358 4.37876C11.3001 4.44683 11.4406 4.56209 11.5394 4.70998C11.6382 4.85787 11.691 5.03175 11.691 5.20961C11.691 5.44812 11.5962 5.67686 11.4276 5.84551C11.2589 6.01417 11.0302 6.10891 10.7917 6.10891ZM14.3889 6.10891C14.211 6.10891 14.0371 6.05617 13.8893 5.95735C13.7414 5.85854 13.6261 5.71809 13.558 5.55376C13.49 5.38943 13.4722 5.20861 13.5069 5.03417C13.5416 4.85972 13.6272 4.69948 13.753 4.57371C13.8787 4.44794 14.039 4.36229 14.2134 4.32759C14.3879 4.29289 14.5687 4.3107 14.733 4.37876C14.8974 4.44683 15.0378 4.56209 15.1366 4.70998C15.2354 4.85787 15.2882 5.03175 15.2882 5.20961C15.2882 5.44812 15.1934 5.67686 15.0248 5.84551C14.8561 6.01417 14.6274 6.10891 14.3889 6.10891Z" fill="#C8C8C8"/>
<path d="M6.29513 19.5985H2.69791C1.98238 19.5985 1.29616 19.3142 0.7902 18.8083C0.284244 18.3023 0 17.6161 0 16.9005C0 16.185 0.284244 15.4988 0.7902 14.9928C1.29616 14.4869 1.98238 14.2026 2.69791 14.2026H4.49652C4.73503 14.2026 4.96377 14.2974 5.13242 14.466C5.30107 14.6347 5.39582 14.8634 5.39582 15.1019C5.39582 15.3405 5.30107 15.5692 5.13242 15.7378C4.96377 15.9065 4.73503 16.0012 4.49652 16.0012H2.69791C2.4594 16.0012 2.23066 16.096 2.06201 16.2646C1.89336 16.4333 1.79861 16.662 1.79861 16.9005C1.79861 17.1391 1.89336 17.3678 2.06201 17.5365C2.23066 17.7051 2.4594 17.7999 2.69791 17.7999H6.29513C6.53364 17.7999 6.76238 17.8946 6.93103 18.0633C7.09968 18.2319 7.19443 18.4606 7.19443 18.6992C7.19443 18.9377 7.09968 19.1664 6.93103 19.3351C6.76238 19.5037 6.53364 19.5985 6.29513 19.5985Z" fill="#C8C8C8"/>
<path d="M4.49598 16.0012C4.25747 16.0012 4.02873 15.9065 3.86008 15.7378C3.69143 15.5692 3.59668 15.3404 3.59668 15.1019V12.404C3.59833 11.4169 3.85504 10.4469 4.34191 9.58816C4.82879 8.72943 5.5293 8.01109 6.37553 7.5028L8.53386 6.2078C8.7379 6.08542 8.98212 6.04888 9.21304 6.10619C9.44396 6.1635 9.64276 6.30998 9.7659 6.51356C9.88751 6.71869 9.92266 6.96372 9.86364 7.19476C9.80461 7.4258 9.65624 7.62394 9.45115 7.74561L7.30181 9.04061C6.72229 9.3907 6.24254 9.88395 5.90866 10.473C5.57479 11.062 5.398 11.7269 5.39529 12.404V15.1019C5.39529 15.3404 5.30054 15.5692 5.13189 15.7378C4.96324 15.9065 4.73449 16.0012 4.49598 16.0012Z" fill="#C8C8C8"/>
<path d="M10.99 19.5984C10.3394 19.6058 9.70803 19.3778 9.21225 18.9563C8.71647 18.5349 8.3897 17.9485 8.29214 17.3052L7.4378 11.6396C7.40202 11.4011 7.46246 11.1581 7.60581 10.9642C7.74917 10.7702 7.9637 10.6412 8.20221 10.6054C8.44072 10.5696 8.68367 10.6301 8.87762 10.7734C9.07157 10.9168 9.20063 11.1313 9.23641 11.3698L10.1357 17.0354C10.1682 17.2499 10.2772 17.4453 10.4424 17.5858C10.6077 17.7263 10.8181 17.8023 11.035 17.7998C11.2195 17.7998 11.3966 17.7272 11.5279 17.5976C11.6592 17.468 11.7341 17.2918 11.7365 17.1074V14.2026C11.7365 13.9641 11.8312 13.7354 11.9999 13.5667C12.1685 13.3981 12.3973 13.3033 12.6358 13.3033C12.8743 13.3033 13.103 13.3981 13.2717 13.5667C13.4403 13.7354 13.5351 13.9641 13.5351 14.2026V17.1074C13.5339 17.4387 13.4669 17.7666 13.338 18.0718C13.209 18.3771 13.0206 18.6536 12.7838 18.8854C12.547 19.1172 12.2665 19.2996 11.9585 19.422C11.6506 19.5444 11.3214 19.6044 10.99 19.5984Z" fill="#C8C8C8"/>
<path d="M14.1905 19.5984C13.529 19.5984 12.8944 19.3363 12.4259 18.8694C11.9573 18.4025 11.6928 17.7689 11.6904 17.1074V14.2026C11.6904 13.9641 11.7852 13.7354 11.9538 13.5667C12.1225 13.3981 12.3512 13.3033 12.5897 13.3033C12.8282 13.3033 13.057 13.3981 13.2256 13.5667C13.3943 13.7354 13.489 13.9641 13.489 14.2026V17.1074C13.4914 17.2918 13.5663 17.468 13.6976 17.5976C13.8289 17.7272 14.006 17.7998 14.1905 17.7998C14.4074 17.8023 14.6178 17.7263 14.7831 17.5858C14.9484 17.4453 15.0573 17.2499 15.0898 17.0354L15.9441 11.3698C15.9619 11.2517 16.0027 11.1383 16.0642 11.0359C16.1258 10.9336 16.2069 10.8444 16.3029 10.7734C16.399 10.7024 16.508 10.6511 16.6239 10.6222C16.7398 10.5934 16.8602 10.5877 16.9783 10.6054C17.0964 10.6231 17.2099 10.6639 17.3122 10.7255C17.4145 10.787 17.5037 10.8681 17.5747 10.9642C17.6457 11.0602 17.6971 11.1693 17.7259 11.2852C17.7547 11.4011 17.7605 11.5215 17.7427 11.6396L16.8434 17.3052C16.747 17.9409 16.4268 18.5212 15.9404 18.9416C15.454 19.3621 14.8334 19.595 14.1905 19.5984Z" fill="#C8C8C8"/>
</svg>
