<svg width="18" height="20" viewBox="0 0 18 20" fill="none" xmlns="http://www.w3.org/2000/svg">
<path d="M16.3224 0.128544L14.3889 2.06205H10.7917L8.85817 0.128544C8.79477 0.0663996 8.7144 0.0244119 8.62717 0.00787263C8.53995 -0.0086666 8.44979 0.000982819 8.36804 0.0356047C8.28629 0.0702266 8.21663 0.128272 8.16782 0.202424C8.119 0.276577 8.09324 0.363519 8.09376 0.452293V5.20961C8.09376 6.40216 8.5675 7.54587 9.41076 8.38913C10.254 9.23239 11.3977 9.70613 12.5903 9.70613C13.7828 9.70613 14.9265 9.23239 15.7698 8.38913C16.6131 7.54587 17.0868 6.40216 17.0868 5.20961V0.452293C17.0873 0.363519 17.0615 0.276577 17.0127 0.202424C16.9639 0.128272 16.8943 0.0702266 16.8125 0.0356047C16.7308 0.000982819 16.6406 -0.0086666 16.5534 0.00787263C16.4662 0.0244119 16.3858 0.0663996 16.3224 0.128544ZM10.7917 6.10891C10.6138 6.10891 10.4399 6.05617 10.292 5.95735C10.1442 5.85854 10.0289 5.71809 9.96082 5.55376C9.89275 5.38943 9.87495 5.20861 9.90965 5.03417C9.94434 4.85972 10.03 4.69948 10.1558 4.57371C10.2815 4.44794 10.4418 4.36229 10.6162 4.32759C10.7907 4.29289 10.9715 4.3107 11.1358 4.37876C11.3001 4.44683 11.4406 4.56209 11.5394 4.70998C11.6382 4.85787 11.691 5.03175 11.691 5.20961C11.691 5.44812 11.5962 5.67686 11.4276 5.84551C11.2589 6.01417 11.0302 6.10891 10.7917 6.10891ZM14.3889 6.10891C14.211 6.10891 14.0371 6.05617 13.8893 5.95735C13.7414 5.85854 13.6261 5.71809 13.558 5.55376C13.49 5.38943 13.4722 5.20861 13.5069 5.03417C13.5416 4.85972 13.6272 4.69948 13.753 4.57371C13.8787 4.44794 14.039 4.36229 14.2134 4.32759C14.3879 4.29289 14.5687 4.3107 14.733 4.37876C14.8974 4.44683 15.0378 4.56209 15.1366 4.70998C15.2354 4.85787 15.2882 5.03175 15.2882 5.20961C15.2882 5.44812 15.1934 5.67686 15.0248 5.84551C14.8561 6.01417 14.6274 6.10891 14.3889 6.10891Z" fill="white"/>
<path d="M6.29513 19.5984H2.69791C1.98238 19.5984 1.29616 19.3142 0.7902 18.8082C0.284244 18.3023 0 17.6161 0 16.9005C0 16.185 0.284244 15.4988 0.7902 14.9928C1.29616 14.4869 1.98238 14.2026 2.69791 14.2026H4.49652C4.73503 14.2026 4.96377 14.2974 5.13242 14.466C5.30107 14.6347 5.39582 14.8634 5.39582 15.1019C5.39582 15.3404 5.30107 15.5692 5.13242 15.7378C4.96377 15.9065 4.73503 16.0012 4.49652 16.0012H2.69791C2.4594 16.0012 2.23066 16.096 2.06201 16.2646C1.89336 16.4333 1.79861 16.662 1.79861 16.9005C1.79861 17.139 1.89336 17.3678 2.06201 17.5364C2.23066 17.7051 2.4594 17.7998 2.69791 17.7998H6.29513C6.53364 17.7998 6.76238 17.8946 6.93103 18.0632C7.09968 18.2319 7.19443 18.4606 7.19443 18.6991C7.19443 18.9377 7.09968 19.1664 6.93103 19.335C6.76238 19.5037 6.53364 19.5984 6.29513 19.5984Z" fill="white"/>
<path d="M4.49647 16.0012C4.25796 16.0012 4.02922 15.9065 3.86057 15.7378C3.69192 15.5692 3.59717 15.3405 3.59717 15.1019V12.404C3.59882 11.4169 3.85553 10.4469 4.3424 9.58819C4.82927 8.72946 5.52979 8.01112 6.37602 7.50283L8.53435 6.20783C8.73838 6.08545 8.98261 6.04891 9.21353 6.10622C9.44445 6.16353 9.64325 6.31001 9.76639 6.51359C9.888 6.71872 9.92315 6.96375 9.86413 7.19479C9.8051 7.42583 9.65673 7.62397 9.45164 7.74564L7.3023 9.04064C6.72278 9.39073 6.24303 9.88398 5.90915 10.473C5.57527 11.062 5.39849 11.727 5.39578 12.404V15.1019C5.39578 15.3405 5.30103 15.5692 5.13238 15.7378C4.96372 15.9065 4.73498 16.0012 4.49647 16.0012Z" fill="white"/>
<path d="M10.9896 19.5985C10.3389 19.6058 9.70754 19.3778 9.21176 18.9564C8.71599 18.535 8.38921 17.9486 8.29165 17.3052L7.43731 11.6396C7.40153 11.4011 7.46197 11.1582 7.60532 10.9642C7.74868 10.7703 7.96321 10.6412 8.20172 10.6054C8.44023 10.5696 8.68318 10.6301 8.87713 10.7734C9.07108 10.9168 9.20014 11.1313 9.23592 11.3698L10.1352 17.0354C10.1677 17.2499 10.2767 17.4454 10.4419 17.5858C10.6072 17.7263 10.8176 17.8023 11.0345 17.7999C11.219 17.7999 11.3961 17.7272 11.5274 17.5976C11.6587 17.468 11.7336 17.2919 11.736 17.1074V14.2026C11.736 13.9641 11.8307 13.7354 11.9994 13.5667C12.168 13.3981 12.3968 13.3033 12.6353 13.3033C12.8738 13.3033 13.1025 13.3981 13.2712 13.5667C13.4398 13.7354 13.5346 13.9641 13.5346 14.2026V17.1074C13.5335 17.4388 13.4664 17.7666 13.3375 18.0719C13.2085 18.3771 13.0201 18.6537 12.7833 18.8855C12.5465 19.1172 12.266 19.2997 11.958 19.4221C11.6501 19.5445 11.3209 19.6044 10.9896 19.5985Z" fill="white"/>
<path d="M14.191 19.5985C13.5295 19.5985 12.8949 19.3363 12.4263 18.8694C11.9577 18.4025 11.6933 17.7689 11.6909 17.1074V14.2026C11.6909 13.9641 11.7857 13.7354 11.9543 13.5667C12.123 13.3981 12.3517 13.3033 12.5902 13.3033C12.8287 13.3033 13.0575 13.3981 13.2261 13.5667C13.3948 13.7354 13.4895 13.9641 13.4895 14.2026V17.1074C13.4919 17.2919 13.5668 17.468 13.6981 17.5976C13.8294 17.7272 14.0065 17.7999 14.191 17.7999C14.4079 17.8023 14.6183 17.7263 14.7836 17.5858C14.9488 17.4453 15.0578 17.2499 15.0903 17.0354L15.9446 11.3698C15.9623 11.2517 16.0031 11.1383 16.0647 11.0359C16.1263 10.9336 16.2074 10.8444 16.3034 10.7734C16.3994 10.7025 16.5085 10.6511 16.6244 10.6223C16.7403 10.5934 16.8607 10.5877 16.9788 10.6054C17.0969 10.6231 17.2104 10.6639 17.3127 10.7255C17.415 10.7871 17.5042 10.8682 17.5752 10.9642C17.6462 11.0602 17.6976 11.1693 17.7264 11.2852C17.7552 11.4011 17.7609 11.5215 17.7432 11.6396L16.8439 17.3052C16.7475 17.9409 16.4272 18.5212 15.9408 18.9417C15.4544 19.3621 14.8339 19.595 14.191 19.5985Z" fill="white"/>
</svg>
