<svg width="25" height="21" viewBox="0 0 25 21" fill="none" xmlns="http://www.w3.org/2000/svg">
<path d="M16.2906 20.0463H14.8906C14.7232 20.046 14.5587 20.0038 14.4119 19.9234C14.2652 19.8431 14.1409 19.7271 14.0506 19.5863L11.5406 15.6763L11.4906 15.5863C11.2206 15.0363 10.1206 14.6363 8.89056 14.6363C7.66056 14.6363 6.56056 15.0363 6.29056 15.5863L4.29056 19.5063C4.20532 19.6709 4.07602 19.8085 3.9171 19.9039C3.75818 19.9992 3.57588 20.0486 3.39056 20.0463H2.00056C1.71979 20.0471 1.442 19.9887 1.18529 19.875C0.928573 19.7612 0.698677 19.5948 0.51056 19.3863C0.32447 19.1787 0.183858 18.9344 0.0977507 18.6692C0.0116436 18.404 -0.0180557 18.1237 0.0105596 17.8463L0.89056 9.04632L0.17056 3.24632C0.0671252 2.49708 0.26556 1.73745 0.722211 1.13452C1.17886 0.531587 1.85632 0.134756 2.60556 0.0313214C3.3548 -0.0721131 4.11444 0.126322 4.71736 0.582973C5.32029 1.03962 5.71712 1.71708 5.82056 2.46632L6.19056 4.88632C6.21327 5.01857 6.20913 5.15404 6.17838 5.28466C6.14764 5.41528 6.09092 5.53838 6.01161 5.64662C5.9323 5.75486 5.83201 5.84603 5.71672 5.9147C5.60144 5.98336 5.47351 6.02813 5.34056 6.04632C5.21053 6.0662 5.07786 6.06022 4.95014 6.02874C4.82242 5.99726 4.70217 5.94089 4.59627 5.86286C4.49037 5.78483 4.40091 5.68667 4.33301 5.57401C4.2651 5.46135 4.2201 5.3364 4.20056 5.20632L3.83056 2.77632C3.80372 2.57311 3.70351 2.38672 3.54879 2.25226C3.39407 2.1178 3.19553 2.04456 2.99056 2.04632C2.86906 2.04422 2.74861 2.06914 2.63792 2.1193C2.52724 2.16945 2.42908 2.24358 2.35056 2.33632C2.26427 2.43116 2.20056 2.5443 2.16419 2.66725C2.12782 2.79021 2.11975 2.9198 2.14056 3.04632L2.89056 8.92632C2.89577 8.99956 2.89577 9.07308 2.89056 9.14632L2.00056 18.0463H2.78056L4.50056 14.6863C5.26056 13.1763 7.26056 12.6363 8.89056 12.6363C10.5206 12.6363 12.4806 13.1663 13.2506 14.6363L15.4406 18.0463H16.2906L15.8906 14.1463C15.864 13.8811 15.944 13.6162 16.1127 13.4099C16.2815 13.2036 16.5253 13.0728 16.7906 13.0463C17.0558 13.0198 17.3207 13.0997 17.527 13.2685C17.7332 13.4373 17.864 13.6811 17.8906 13.9463L18.2806 17.8463C18.3078 18.1244 18.2766 18.4051 18.1887 18.6704C18.1009 18.9356 17.9584 19.1795 17.7706 19.3863C17.5836 19.5935 17.3553 19.7593 17.1004 19.8729C16.8455 19.9866 16.5696 20.0457 16.2906 20.0463Z" fill="#C8C8C8"/>
<path d="M10.3911 9.04627C10.2145 9.04802 10.0411 8.99946 9.89111 8.90627C8.33864 8.42559 6.68232 8.39094 5.11111 8.80627C4.84589 8.86462 4.56836 8.81522 4.33956 8.66894C4.11077 8.52266 3.94945 8.29148 3.89111 8.02627C3.83276 7.76105 3.88216 7.48352 4.02843 7.25473C4.17471 7.02593 4.40589 6.86462 4.67111 6.80627C7.01111 6.28627 9.67111 6.43627 10.9011 7.14627C11.1124 7.24665 11.2819 7.41795 11.38 7.63036C11.478 7.84276 11.4985 8.08284 11.4379 8.3088C11.3772 8.53475 11.2393 8.73229 11.048 8.86704C10.8567 9.00179 10.6243 9.06521 10.3911 9.04627Z" fill="#C8C8C8"/>
<path fill-rule="evenodd" clip-rule="evenodd" d="M19.005 4.44057C19.005 4.44057 20.7764 2.83609 21.6382 2.92029C22.5001 3.00449 23.5667 8.34921 22.7834 9.07644C22.0001 9.80367 20.997 8.59777 20.997 8.59777C20.6537 9.87866 19.8157 10.9708 18.6673 11.6338C17.5189 12.2968 16.1541 12.4765 14.8732 12.1333C13.5923 11.7901 12.5003 10.9521 11.8372 9.80367C11.1742 8.65525 10.9945 7.29047 11.3377 6.00958C11.3377 6.00958 9.4999 7.37902 9.35096 5.6916C9.20202 4.00417 12.5067 0.217484 13.6211 0.772094C14.7355 1.3267 15.1414 3.4053 15.1414 3.4053L19.005 4.44057ZM19.1906 8.48805C19.0477 9.02152 18.4993 9.3381 17.9659 9.19516C17.4324 9.05222 17.1158 8.50388 17.2588 7.97042C17.4017 7.43695 17.95 7.12037 18.4835 7.26331C19.017 7.40625 19.3335 7.95459 19.1906 8.48805ZM14.9659 8.19516C15.4993 8.3381 16.0477 8.02152 16.1906 7.48805C16.3336 6.95458 16.017 6.40625 15.4835 6.26331C14.95 6.12036 14.4017 6.43695 14.2588 6.97041C14.1158 7.50388 14.4324 8.05221 14.9659 8.19516Z" fill="#C8C8C8"/>
</svg>
