<svg width="25" height="22" viewBox="0 0 25 22" fill="none" xmlns="http://www.w3.org/2000/svg">
<path d="M16.2906 21.0418H14.8906C14.7232 21.0415 14.5587 20.9993 14.4119 20.9189C14.2652 20.8385 14.1409 20.7226 14.0506 20.5818L11.5406 16.6718L11.4906 16.5818C11.2206 16.0318 10.1206 15.6318 8.89056 15.6318C7.66056 15.6318 6.56056 16.0318 6.29056 16.5818L4.29056 20.5018C4.20532 20.6664 4.07602 20.804 3.9171 20.8994C3.75818 20.9947 3.57588 21.044 3.39056 21.0418H2.00056C1.71979 21.0426 1.442 20.9842 1.18529 20.8705C0.928573 20.7567 0.698677 20.5902 0.51056 20.3818C0.32447 20.1742 0.183858 19.9299 0.0977507 19.6647C0.0116436 19.3995 -0.0180557 19.1192 0.0105596 18.8418L0.89056 10.0418L0.17056 4.24181C0.0671252 3.49258 0.26556 2.73294 0.722211 2.13001C1.17886 1.52708 1.85632 1.13025 2.60556 1.02681C3.3548 0.923378 4.11444 1.12181 4.71736 1.57846C5.32029 2.03512 5.71713 2.71258 5.82056 3.46181L6.19056 5.88181C6.21327 6.01407 6.20913 6.14954 6.17838 6.28015C6.14764 6.41077 6.09092 6.53387 6.01161 6.64211C5.9323 6.75035 5.83201 6.84152 5.71672 6.91019C5.60144 6.97886 5.47351 7.02362 5.34056 7.04181C5.21053 7.06169 5.07785 7.05571 4.95014 7.02423C4.82242 6.99275 4.70217 6.93638 4.59627 6.85835C4.49037 6.78032 4.40091 6.68216 4.33301 6.5695C4.2651 6.45684 4.2201 6.33189 4.20056 6.20181L3.83056 3.77181C3.80372 3.5686 3.70351 3.38221 3.54879 3.24775C3.39407 3.11329 3.19553 3.04005 2.99056 3.04181C2.86906 3.03971 2.74861 3.06464 2.63792 3.11479C2.52724 3.16494 2.42908 3.23907 2.35056 3.33181C2.26427 3.42665 2.20056 3.53979 2.16419 3.66275C2.12782 3.7857 2.11975 3.91529 2.14056 4.04181L2.89056 9.92181C2.89577 9.99505 2.89577 10.0686 2.89056 10.1418L2.00056 19.0418H2.78056L4.50056 15.6818C5.26056 14.1718 7.26056 13.6318 8.89056 13.6318C10.5206 13.6318 12.4806 14.1618 13.2506 15.6318L15.4406 19.0418H16.2906L15.8906 15.1418C15.864 14.8766 15.944 14.6117 16.1127 14.4054C16.2815 14.1991 16.5253 14.0683 16.7906 14.0418C17.0558 14.0153 17.3207 14.0952 17.527 14.264C17.7332 14.4328 17.864 14.6766 17.8906 14.9418L18.2806 18.8418C18.3078 19.1199 18.2766 19.4006 18.1887 19.6658C18.1009 19.9311 17.9584 20.175 17.7706 20.3818C17.5836 20.589 17.3553 20.7548 17.1004 20.8684C16.8455 20.9821 16.5696 21.0412 16.2906 21.0418V21.0418Z" fill="white"/>
<path d="M10.3906 10.0418C10.214 10.0436 10.0406 9.995 9.89062 9.90181C8.33815 9.42114 6.68183 9.38649 5.11062 9.80181C4.8454 9.86016 4.56787 9.81076 4.33907 9.66448C4.11028 9.51821 3.94896 9.28703 3.89062 9.02181C3.83227 8.7566 3.88167 8.47906 4.02795 8.25027C4.17423 8.02148 4.4054 7.86016 4.67062 7.80181C7.01062 7.28181 9.67062 7.43181 10.9006 8.14181C11.1119 8.24219 11.2814 8.41349 11.3795 8.6259C11.4775 8.83831 11.498 9.07838 11.4374 9.30434C11.3767 9.5303 11.2388 9.72784 11.0475 9.86258C10.8563 9.99733 10.6238 10.0608 10.3906 10.0418V10.0418Z" fill="white"/>
<path fill-rule="evenodd" clip-rule="evenodd" d="M19.005 5.43608C19.005 5.43608 20.7764 3.8316 21.6382 3.9158C22.5001 4 23.5667 9.34472 22.7834 10.072C22.0001 10.7992 20.997 9.59328 20.997 9.59328C20.6537 10.8742 19.8157 11.9663 18.6673 12.6293C17.5189 13.2924 16.1541 13.472 14.8732 13.1288C13.5923 12.7856 12.5003 11.9476 11.8372 10.7992C11.1742 9.65077 10.9945 8.28599 11.3377 7.00509C11.3377 7.00509 9.4999 8.37453 9.35096 6.68711C9.20202 4.99969 12.5067 1.213 13.6211 1.76761C14.7355 2.32222 15.1414 4.40081 15.1414 4.40081L19.005 5.43608ZM19.1906 9.48357C19.0477 10.017 18.4993 10.3336 17.9659 10.1907C17.4324 10.0477 17.1158 9.4994 17.2588 8.96593C17.4017 8.43246 17.95 8.11588 18.4835 8.25882C19.017 8.40176 19.3335 8.9501 19.1906 9.48357ZM14.9659 9.19067C15.4993 9.33361 16.0477 9.01703 16.1906 8.48356C16.3336 7.9501 16.017 7.40176 15.4835 7.25882C14.95 7.11588 14.4017 7.43246 14.2588 7.96593C14.1158 8.49939 14.4324 9.04773 14.9659 9.19067Z" fill="white"/>
</svg>
