<svg width="12" height="18" viewBox="0 0 12 18" fill="none" xmlns="http://www.w3.org/2000/svg">
<path d="M8.52154 11.2332C11.47 9.80871 12.6998 6.27177 11.27 3.33386C9.84117 0.39595 6.29542 -0.831189 3.34606 0.59416C0.397574 2.01863 -0.833089 5.55469 0.594903 8.49172C1.55248 10.458 3.45793 11.6534 5.49729 11.8058L5.49729 14.5983H3.37248L3.37248 15.8907H5.49729L5.49729 17.9494H6.7905L6.7905 15.8907H8.91443V14.5983H6.7905L6.7905 11.7644C7.37632 11.6781 7.96038 11.5045 8.52154 11.2332ZM2.23432 7.70064C1.24415 5.66481 2.09689 3.21405 4.14154 2.22741C6.18354 1.23988 8.64222 2.09086 9.63151 4.12582C10.6226 6.16342 9.76894 8.61417 7.72693 9.59993C5.68317 10.5875 3.22537 9.73736 2.23432 7.70064Z" fill="#6727AF"/>
</svg>
