<svg width="27" height="27" viewBox="0 0 27 27" fill="none" xmlns="http://www.w3.org/2000/svg">
<path d="M16.875 27H1.125C0.45 27 0 26.55 0 25.875V1.125C0 0.45 0.45 0 1.125 0H16.875C17.55 0 18 0.45 18 1.125V9C18 9.675 17.55 10.125 16.875 10.125C16.2 10.125 15.75 9.675 15.75 9V2.25H2.25V24.75H15.75V18C15.75 17.325 16.2 16.875 16.875 16.875C17.55 16.875 18 17.325 18 18V25.875C18 26.55 17.55 27 16.875 27Z" fill="white"/>
<path d="M25.875 14.625H9C8.325 14.625 7.875 14.175 7.875 13.5C7.875 12.825 8.325 12.375 9 12.375H25.875C26.55 12.375 27 12.825 27 13.5C27 14.175 26.55 14.625 25.875 14.625Z" fill="white"/>
<path d="M25.875 14.625C25.5375 14.625 25.3125 14.5125 25.0875 14.2875L20.5875 9.7875C20.1375 9.3375 20.1375 8.6625 20.5875 8.2125C21.0375 7.7625 21.7125 7.7625 22.1625 8.2125L26.6625 12.7125C27.1125 13.1625 27.1125 13.8375 26.6625 14.2875C26.4375 14.5125 26.2125 14.625 25.875 14.625Z" fill="white"/>
<path d="M21.375 19.125C21.0375 19.125 20.8125 19.0125 20.5875 18.7875C20.1375 18.3375 20.1375 17.6625 20.5875 17.2125L25.0875 12.7125C25.5375 12.2625 26.2125 12.2625 26.6625 12.7125C27.1125 13.1625 27.1125 13.8375 26.6625 14.2875L22.1625 18.7875C21.9375 19.0125 21.7125 19.125 21.375 19.125Z" fill="white"/>
</svg>
