<svg width="22" height="22" viewBox="0 0 22 22" fill="none" xmlns="http://www.w3.org/2000/svg">
<path d="M10.6997 7.54742C7.60751 6.46978 4.23692 8.10119 3.1705 11.1896C2.10345 14.2774 3.74295 17.6523 6.83634 18.73C9.92848 19.8076 13.2991 18.1774 14.3661 15.0909C15.0794 13.0235 14.5773 10.8308 13.243 9.28099L15.2176 7.30635L16.6728 5.83919L16.6728 7.895L17.6339 7.895L17.6339 6.39191L17.5872 4.93679L16.6728 4.02235L15 4L13.7152 3.97626V4.93679L15.8668 4.93679L14.3032 6.39191L12.2993 8.39583C11.824 8.04263 11.2883 7.75236 10.6997 7.54742ZM12.6475 14.491C11.9081 16.6307 9.57218 17.7607 7.42873 17.0126C5.28653 16.267 4.14972 13.9267 4.88912 11.7882C5.62914 9.64664 7.96568 8.51729 10.1066 9.26417C12.2501 10.011 13.3869 12.3501 12.6475 14.491Z" fill="#6727AF"/>
</svg>
