<svg width="28" height="28" viewBox="0 0 28 28" fill="none" xmlns="http://www.w3.org/2000/svg">
<path d="M7 22.75C7 24.199 8.17512 25.375 9.625 25.375H18.375C19.824 25.375 21 24.199 21 22.75L22.75 8.75H5.25L7 22.75ZM16.625 11.375H18.375V22.75H16.625V11.375ZM13.125 11.375H14.875V22.75H13.125V11.375ZM9.625 11.375H11.375V22.75H9.625V11.375ZM22.3125 5.25H16.625C16.625 5.25 16.233 3.5 15.75 3.5H12.25C11.7661 3.5 11.375 5.25 11.375 5.25H5.6875C4.96213 5.25 4.375 5.83712 4.375 6.5625C4.375 7.28787 4.375 7.875 4.375 7.875H23.625C23.625 7.875 23.625 7.28787 23.625 6.5625C23.625 5.83712 23.037 5.25 22.3125 5.25Z" fill="white"/>
</svg>
