<svg width="28" height="28" viewBox="0 0 28 28" fill="none" xmlns="http://www.w3.org/2000/svg">
<path d="M5.87404 25.1015C8.65365 28.7796 14.124 26.6093 14.124 22.8741C14.124 26.6093 19.5947 28.7798 22.3747 25.1015C25.2479 21.299 22.416 14.6379 14.1242 10.8115C5.83276 14.6379 3.00084 21.299 5.87404 25.1015Z" fill="white"/>
<path d="M5.86074 9.3921C7.03496 11.0576 7.06231 12.9632 6.04252 13.7125C4.96842 14.4818 3.20112 13.7162 2.0269 12.0508C0.852678 10.3853 0.825334 8.47963 1.84512 7.73041C2.91922 6.96104 4.74084 7.70647 5.86074 9.3921Z" fill="white"/>
<path d="M23.0343 8.65383C21.842 10.2705 21.6863 12.1823 22.7211 12.9725C23.7559 13.7627 25.5485 13.0975 26.7951 11.4607C27.9874 9.84405 28.1432 7.93225 27.1083 7.14205C26.0735 6.35185 24.2266 7.03719 23.0343 8.65383Z" fill="white"/>
<path d="M12.5827 4.88746C12.9282 6.98408 12.0741 8.84602 10.7239 9.03803C9.37378 9.23004 8.02259 7.75383 7.67718 5.65721C7.33176 3.56058 8.18584 1.69864 9.53599 1.50663C10.8861 1.31462 12.2373 2.79083 12.5827 4.88746Z" fill="white"/>
<path d="M15.4449 4.90466C15.0377 6.97157 15.7975 8.85262 17.146 9.15565C18.4743 9.40435 19.9102 7.94452 20.3174 5.87761C20.7246 3.81069 19.9648 1.92964 18.6163 1.62662C17.288 1.37792 15.8521 2.83775 15.4449 4.90466Z" fill="white"/>
</svg>
