<svg width="64" height="56" viewBox="0 0 64 56" fill="none" xmlns="http://www.w3.org/2000/svg">
<path d="M2.93435 38.9204C2.24986 38.9204 1.50315 38.8315 0.694209 38.6537C0.489752 38.6093 0.320853 38.507 0.187511 38.347C0.0541699 38.1781 -0.00805604 37.9915 0.000833383 37.787C0.0452806 36.6314 0.0719487 35.4491 0.0808382 34.2401C0.098617 33.0223 0.0719489 31.7866 0.000833383 30.5332C-0.00805604 30.3021 0.0630595 30.0976 0.21418 29.9199C0.37419 29.7421 0.569757 29.6443 0.800883 29.6265C1.1209 29.5998 1.43648 29.5865 1.74761 29.5865C2.89434 29.5865 3.85885 29.7643 4.64112 30.1199C4.94336 30.2621 5.18782 30.4177 5.3745 30.5866C5.57006 30.7466 5.72119 30.911 5.82786 31.0799C5.94342 31.2399 6.01898 31.3955 6.05454 31.5466C6.09899 31.6889 6.12565 31.8133 6.13454 31.92C6.17899 32.3467 6.06343 32.7556 5.78786 33.1467C5.5834 33.4578 5.29005 33.7379 4.9078 33.9868C5.60118 34.2535 6.10788 34.6001 6.4279 35.0268C6.75681 35.4535 6.92126 35.8936 6.92126 36.3469C6.92126 36.7292 6.81459 37.0892 6.60124 37.427C6.39678 37.7559 6.09899 38.0359 5.70785 38.267C4.98781 38.7026 4.06331 38.9204 2.93435 38.9204ZM1.76094 37.0936C1.9654 37.1203 2.16541 37.1425 2.36098 37.1603C2.55655 37.1781 2.74767 37.187 2.93435 37.187C3.33437 37.187 3.69439 37.1514 4.01441 37.0803C4.33443 37.0092 4.60112 36.9114 4.81446 36.7869C4.93003 36.7158 5.01892 36.6447 5.08115 36.5736C5.15226 36.4936 5.18782 36.418 5.18782 36.3469C5.18782 36.2758 5.14337 36.1869 5.05448 36.0802C4.96558 35.9736 4.82335 35.8669 4.62778 35.7602C4.31665 35.5913 3.92996 35.4624 3.46771 35.3735C3.01435 35.2846 2.50765 35.2402 1.94762 35.2402H1.80094C1.79206 35.5513 1.78317 35.8624 1.77428 36.1736C1.77428 36.4758 1.76983 36.7825 1.76094 37.0936ZM1.77428 31.3199C1.80094 32.0044 1.81428 32.6845 1.81428 33.3601C2.32098 33.2356 2.73434 33.1112 3.05435 32.9867C3.37437 32.8534 3.62328 32.7378 3.80107 32.64C4.04997 32.4889 4.20998 32.3644 4.2811 32.2667C4.3611 32.16 4.40555 32.0933 4.41444 32.0667C4.40555 32.0489 4.3611 32.0044 4.2811 31.9333C4.20998 31.8533 4.0722 31.7644 3.86774 31.6666C3.60994 31.5511 3.29881 31.4666 2.93435 31.4133C2.57877 31.3511 2.19208 31.3199 1.77428 31.3199Z" fill="white"/>
<path d="M13.4212 29.5598H13.4346C13.6657 29.5687 13.8613 29.6487 14.0213 29.7998C14.1813 29.951 14.2702 30.1421 14.288 30.3732L14.7813 37.827C14.7991 38.067 14.728 38.2759 14.568 38.4537C14.408 38.6315 14.208 38.7293 13.9679 38.7471C13.7279 38.7648 13.519 38.6937 13.3412 38.5337C13.1634 38.3737 13.0657 38.1737 13.0479 37.9337L12.9679 36.7469C12.8879 36.9425 12.8034 37.1247 12.7145 37.2936C12.4745 37.7648 12.2123 38.1292 11.9278 38.387C11.67 38.6182 11.4211 38.7648 11.1811 38.8271C10.95 38.8804 10.7455 38.9026 10.5677 38.8937C10.3988 38.876 10.2033 38.8271 9.98103 38.7471C9.75879 38.6582 9.53211 38.4893 9.30099 38.2404C9.03431 37.947 8.81207 37.5692 8.63428 37.107C8.34982 36.4047 8.14092 35.4713 8.00758 34.3068C7.94535 33.8356 7.9009 33.3734 7.87423 32.92C7.84757 32.4667 7.82979 32.0667 7.8209 31.72C7.81201 31.3644 7.80756 31.0755 7.80756 30.8532C7.80756 30.6221 7.80756 30.4977 7.80756 30.4799C7.81645 30.2488 7.9009 30.0487 8.06091 29.8799C8.22981 29.711 8.43427 29.6265 8.67428 29.6265C8.68317 29.6265 8.68762 29.6309 8.68762 29.6398C8.92763 29.6398 9.12765 29.7287 9.28765 29.9065C9.45655 30.0754 9.541 30.2799 9.541 30.5199C9.541 30.5199 9.541 30.6266 9.541 30.8399C9.541 31.0444 9.54545 31.3155 9.55434 31.6533C9.56323 31.9911 9.58101 32.3778 9.60767 32.8134C9.63434 33.2401 9.67435 33.6756 9.72768 34.1201C9.85213 35.1424 10.0255 35.9291 10.2477 36.4803C10.3544 36.7381 10.4477 36.9158 10.5277 37.0136C10.6077 37.1025 10.6611 37.1514 10.6877 37.1603C10.6966 37.1514 10.7411 37.1114 10.8211 37.0403C10.91 36.9692 11.0167 36.8181 11.1411 36.5869C11.2656 36.3469 11.4033 36.0136 11.5545 35.5869C11.7056 35.1513 11.8611 34.569 12.0212 33.8401C12.1189 33.4045 12.1989 32.9778 12.2612 32.56C12.3323 32.1422 12.3901 31.7733 12.4345 31.4533C12.479 31.1244 12.5101 30.8577 12.5279 30.6532C12.5545 30.4488 12.5679 30.3465 12.5679 30.3465C12.5856 30.1243 12.6745 29.9376 12.8345 29.7865C13.0034 29.6354 13.199 29.5598 13.4212 29.5598Z" fill="white"/>
<path d="M19.1386 38.9071C18.6763 38.9071 18.223 38.8448 17.7785 38.7204C17.2896 38.5871 16.8718 38.3915 16.5251 38.1337C16.1873 37.8759 15.9384 37.5692 15.7784 37.2136C15.6806 36.9914 15.6717 36.7692 15.7517 36.5469C15.8406 36.3247 15.9962 36.1647 16.2184 36.0669C16.4406 35.9691 16.6629 35.9647 16.8851 36.0536C17.1073 36.1336 17.2673 36.2847 17.3651 36.5069C17.4185 36.6225 17.5251 36.7292 17.6852 36.8269C17.854 36.9247 18.0541 37.0047 18.2852 37.067C18.5252 37.1292 18.783 37.1647 19.0586 37.1736C19.3341 37.1825 19.6097 37.1559 19.8853 37.0936C19.9386 37.0847 20.0142 37.067 20.112 37.0403C20.2186 37.0047 20.3209 36.9603 20.4187 36.9069C20.5253 36.8536 20.6142 36.7914 20.6853 36.7203C20.7565 36.6403 20.792 36.5469 20.792 36.4403C20.792 36.4136 20.7787 36.3691 20.752 36.3069C20.7342 36.2447 20.6498 36.1647 20.4987 36.0669C20.3386 35.9602 20.1431 35.858 19.912 35.7602C19.6808 35.6624 19.4364 35.5646 19.1786 35.4669C18.823 35.3246 18.4719 35.178 18.1252 35.0268C17.7785 34.8757 17.454 34.6846 17.1518 34.4535C16.3606 33.8579 15.9784 33.0889 16.005 32.1467C16.0495 31.3555 16.3473 30.7288 16.8984 30.2665C17.3696 29.8843 17.9518 29.6576 18.6452 29.5865C19.0363 29.5421 19.4319 29.5554 19.8319 29.6265C20.2409 29.6887 20.632 29.7954 21.0054 29.9465C21.4498 30.1332 21.8098 30.3643 22.0854 30.6399C22.361 30.9155 22.5388 31.2222 22.6188 31.56C22.681 31.7911 22.6455 32.0089 22.5121 32.2133C22.3877 32.4178 22.2099 32.5511 21.9787 32.6134C21.7476 32.6667 21.5298 32.6311 21.3254 32.5067C21.1298 32.3822 21.0009 32.2044 20.9387 31.9733C20.9209 31.9289 20.8542 31.8622 20.7387 31.7733C20.632 31.6844 20.4631 31.5955 20.232 31.5066C19.9831 31.4088 19.7208 31.3466 19.4453 31.3199C19.1786 31.2844 18.9297 31.2888 18.6985 31.3333C18.4674 31.3688 18.2852 31.4266 18.1518 31.5066C18.0274 31.5777 17.9341 31.6577 17.8718 31.7466C17.8096 31.8266 17.7696 31.9111 17.7518 32C17.7429 32.0889 17.7385 32.16 17.7385 32.2133C17.7296 32.3911 17.7607 32.5467 17.8318 32.68C17.9029 32.8134 18.0229 32.9423 18.1918 33.0667C18.3963 33.2178 18.6408 33.3556 18.9252 33.4801C19.2186 33.6045 19.5119 33.729 19.8053 33.8534C20.0986 33.969 20.3875 34.089 20.672 34.2135C20.9654 34.329 21.232 34.4712 21.472 34.6401C22.1565 35.1024 22.5077 35.6891 22.5254 36.4003C22.5432 37.0581 22.2988 37.6092 21.7921 38.0537C21.392 38.4004 20.8853 38.6404 20.272 38.7737C20.0942 38.8182 19.9075 38.8537 19.7119 38.8804C19.5253 38.8982 19.3341 38.9071 19.1386 38.9071Z" fill="white"/>
<path d="M26.8446 38.9337C26.4979 38.9337 26.1645 38.8804 25.8445 38.7737C25.4712 38.6582 25.1334 38.4759 24.8311 38.227C24.5289 37.9781 24.2755 37.6714 24.0711 37.307C23.6533 36.5425 23.4621 35.5869 23.4977 34.4401C23.5421 33.0889 23.8488 31.9866 24.4178 31.1333C24.6844 30.7332 25 30.4088 25.3645 30.1599C25.7378 29.9021 26.1379 29.7332 26.5646 29.6532C26.8935 29.5821 27.2224 29.5776 27.5513 29.6398C27.8891 29.6932 28.2047 29.7998 28.498 29.9599C29.1114 30.2977 29.5603 30.7999 29.8448 31.4666C29.9425 31.6889 29.9425 31.9111 29.8448 32.1333C29.7559 32.3467 29.6003 32.5022 29.3781 32.6C29.1558 32.6978 28.9336 32.7022 28.7113 32.6134C28.498 32.5245 28.3424 32.3689 28.2447 32.1467C28.1202 31.8533 27.9335 31.6355 27.6846 31.4933C27.4357 31.3422 27.169 31.2933 26.8846 31.3466C26.4845 31.4266 26.1423 31.6755 25.8578 32.0933C25.6623 32.3778 25.5112 32.7245 25.4045 33.1334C25.2978 33.5334 25.2356 33.9868 25.2178 34.4935C25.2089 34.7068 25.2134 34.9468 25.2311 35.2135C25.2578 35.4802 25.3111 35.7424 25.3911 36.0002C25.4711 36.258 25.5867 36.4936 25.7378 36.7069C25.889 36.9114 26.0979 37.0536 26.3645 37.1336C26.5601 37.1959 26.7735 37.2181 27.0046 37.2003C27.2357 37.1736 27.4624 37.1159 27.6846 37.027C27.9069 36.9292 28.1158 36.8047 28.3113 36.6536C28.5069 36.5025 28.6713 36.3291 28.8047 36.1336C28.9291 35.9291 29.1069 35.8047 29.3381 35.7602C29.5781 35.7158 29.8003 35.7558 30.0048 35.8802C30.2003 36.0136 30.3203 36.2002 30.3648 36.4403C30.4181 36.6714 30.3781 36.8847 30.2448 37.0803C30.0137 37.4181 29.7336 37.7248 29.4047 38.0003C29.0758 38.267 28.7113 38.4804 28.3113 38.6404C28.0713 38.7382 27.8269 38.8137 27.5779 38.8671C27.329 38.9115 27.0846 38.9337 26.8446 38.9337Z" fill="white"/>
<path d="M38.8473 37.987C38.8651 38.227 38.7939 38.4404 38.6339 38.6271C38.4828 38.8048 38.2873 38.9026 38.0472 38.9204H37.9806C37.7494 38.9204 37.5494 38.8448 37.3805 38.6937C37.2205 38.5426 37.1316 38.3515 37.1138 38.1204C37.1138 38.0581 37.1094 38.0092 37.1005 37.9737C37.0916 37.9915 37.0738 38.0137 37.0472 38.0404C36.9049 38.1915 36.7494 38.3204 36.5805 38.427C36.4205 38.5337 36.2516 38.6271 36.0738 38.7071C35.6915 38.8493 35.3182 38.9204 34.9537 38.9204C34.7226 38.9204 34.4959 38.8982 34.2737 38.8537C34.0603 38.8004 33.8425 38.7248 33.6203 38.6271C33.407 38.5293 33.2025 38.4137 33.0069 38.2804C32.8202 38.1381 32.6425 37.9781 32.4736 37.8003C32.0291 37.347 31.6957 36.8136 31.4735 36.2002C31.2602 35.578 31.1624 34.9068 31.1801 34.1868C31.1979 33.8579 31.2335 33.5379 31.2868 33.2267C31.3402 32.9156 31.4202 32.6178 31.5268 32.3333C31.7313 31.7822 32.0069 31.3022 32.3536 30.8932C32.7002 30.4754 33.1003 30.1554 33.5536 29.9332C34.007 29.7021 34.4737 29.5865 34.9537 29.5865C35.6826 29.5865 36.3227 29.8354 36.8738 30.3332C36.9094 30.1199 37.0072 29.9421 37.1672 29.7998C37.3361 29.6576 37.5317 29.5909 37.7539 29.5998C37.985 29.6087 38.185 29.7021 38.3539 29.8799C38.5228 30.0487 38.6028 30.2532 38.5939 30.4932C38.5495 31.8978 38.5584 33.2312 38.6206 34.4935C38.6828 35.7469 38.7584 36.9114 38.8473 37.987ZM35.8204 36.8136C36.0516 36.5736 36.2293 36.2402 36.3538 35.8135C36.4783 35.378 36.5405 34.8713 36.5405 34.2935C36.5405 33.8401 36.5005 33.4312 36.4205 33.0667C36.3405 32.7022 36.2293 32.3911 36.0871 32.1333C35.9538 31.8666 35.7893 31.6666 35.5938 31.5333C35.4071 31.3911 35.1937 31.3199 34.9537 31.3199C34.7226 31.3199 34.487 31.3866 34.247 31.52C34.007 31.6533 33.7892 31.8489 33.5936 32.1067C33.407 32.3556 33.2469 32.6622 33.1136 33.0267C32.9891 33.3823 32.9225 33.7868 32.9136 34.2401C32.8958 34.7201 32.9536 35.1646 33.0869 35.5735C33.2292 35.9736 33.4381 36.3158 33.7136 36.6003C33.8914 36.7869 34.087 36.9336 34.3003 37.0403C34.5226 37.1381 34.7404 37.187 34.9537 37.187C35.2915 37.187 35.5804 37.0625 35.8204 36.8136Z" fill="white"/>
<path d="M41.2015 38.9071H41.1882C40.957 38.8982 40.7615 38.8182 40.6015 38.6671C40.4414 38.5159 40.3526 38.3248 40.3348 38.0937L39.8414 30.6399C39.8236 30.3999 39.8947 30.191 40.0548 30.0132C40.2148 29.8354 40.4148 29.7376 40.6548 29.7198C40.8948 29.7021 41.1037 29.7732 41.2815 29.9332C41.4593 30.0932 41.5571 30.2932 41.5748 30.5332L41.6549 31.72C41.7349 31.5244 41.8193 31.3422 41.9082 31.1733C42.1482 30.7021 42.4105 30.3377 42.6949 30.0799C42.9527 29.8487 43.1972 29.7065 43.4283 29.6532C43.6683 29.5909 43.8772 29.5643 44.055 29.5732C44.2239 29.5909 44.4195 29.6443 44.6417 29.7332C44.8639 29.8132 45.0906 29.9776 45.3217 30.2265C45.5884 30.5199 45.8107 30.8977 45.9885 31.3599C46.2729 32.0622 46.4818 32.9956 46.6152 34.1601C46.6774 34.6313 46.7218 35.0935 46.7485 35.5469C46.7752 36.0002 46.7929 36.4047 46.8018 36.7603C46.8107 37.107 46.8152 37.3959 46.8152 37.627C46.8152 37.8492 46.8152 37.9692 46.8152 37.987C46.8063 38.2181 46.7174 38.4182 46.5485 38.5871C46.3885 38.756 46.1885 38.8404 45.9485 38.8404C45.9396 38.8404 45.9351 38.836 45.9351 38.8271C45.6951 38.8271 45.4906 38.7426 45.3217 38.5737C45.1617 38.3959 45.0817 38.187 45.0817 37.947C45.0817 37.947 45.0817 37.8448 45.0817 37.6403C45.0817 37.427 45.0773 37.1514 45.0684 36.8136C45.0595 36.4758 45.0417 36.0936 45.0151 35.6669C44.9884 35.2313 44.9484 34.7913 44.8951 34.3468C44.7706 33.3245 44.5973 32.5378 44.375 31.9866C44.2683 31.7289 44.175 31.5555 44.095 31.4666C44.015 31.3688 43.9617 31.3155 43.935 31.3066C43.9172 31.3155 43.8683 31.3555 43.7883 31.4266C43.7083 31.4977 43.6061 31.6533 43.4816 31.8933C43.3572 32.1244 43.2194 32.4578 43.0683 32.8934C42.9172 33.3201 42.7616 33.8979 42.6016 34.6268C42.5038 35.0624 42.4193 35.4891 42.3482 35.9069C42.286 36.3247 42.2327 36.698 42.1882 37.027C42.1438 37.3559 42.1082 37.6225 42.0815 37.827C42.0638 38.0226 42.0549 38.1204 42.0549 38.1204C42.0371 38.3426 41.9438 38.5293 41.7749 38.6804C41.6149 38.8315 41.4237 38.9071 41.2015 38.9071Z" fill="white"/>
<path d="M54.7593 37.9603C54.7771 38.2004 54.706 38.4137 54.546 38.6004C54.3948 38.7782 54.1993 38.876 53.9593 38.8937H53.8926C53.6703 38.8937 53.4748 38.8182 53.3059 38.6671C53.1459 38.5159 53.057 38.3248 53.0392 38.0937C53.0303 38.0492 53.0214 38.0003 53.0125 37.947C53.0125 37.8937 53.0125 37.8448 53.0125 37.8003L52.9325 37.8803C52.6303 38.1826 52.2925 38.4137 51.9191 38.5737C51.5547 38.7337 51.1724 38.8137 50.7724 38.8137C50.3635 38.8137 49.9723 38.7337 49.599 38.5737C49.2345 38.4137 48.9101 38.187 48.6256 37.8937C48.2522 37.5025 47.9722 37.0314 47.7855 36.4803C47.6878 36.1958 47.6166 35.898 47.5722 35.5869C47.5277 35.2668 47.51 34.9335 47.5189 34.5868C47.5633 33.3423 47.8878 32.3422 48.4922 31.5866C48.7945 31.231 49.1412 30.951 49.5323 30.7466C49.9501 30.551 50.3679 30.4532 50.7857 30.4532C51.2213 30.4532 51.6436 30.5554 52.0525 30.7599C52.328 30.9021 52.5636 31.0666 52.7592 31.2533C52.7681 30.9866 52.7725 30.7288 52.7725 30.4799C52.7725 30.2221 52.777 29.9732 52.7859 29.7332C52.7947 29.502 52.8836 29.302 53.0525 29.1331C53.2303 28.9642 53.4348 28.8842 53.6659 28.8931C53.9059 28.902 54.1104 28.9954 54.2793 29.1731C54.4482 29.342 54.5282 29.5465 54.5193 29.7865C54.5015 30.3643 54.4926 30.9821 54.4926 31.64C54.5015 32.2889 54.5148 32.9645 54.5326 33.6667C54.5504 34.3601 54.5771 35.0713 54.6126 35.8002C54.6571 36.5203 54.706 37.2403 54.7593 37.9603ZM51.7058 36.6669C52.1325 36.2225 52.3458 35.5558 52.3458 34.6668C52.3369 34.1423 52.2703 33.7245 52.1458 33.4134C52.0214 33.1023 51.8925 32.8667 51.7591 32.7067C51.4835 32.36 51.1591 32.1867 50.7857 32.1867C50.6079 32.1867 50.4346 32.2311 50.2657 32.32C50.1057 32.4 49.9635 32.52 49.839 32.68C49.7146 32.8311 49.5901 33.0623 49.4656 33.3734C49.3412 33.6756 49.2701 34.0934 49.2523 34.6268C49.2345 35.0802 49.279 35.4846 49.3856 35.8402C49.4923 36.1869 49.6523 36.4669 49.8657 36.6803C50.1324 36.947 50.4346 37.0803 50.7724 37.0803C51.1191 37.0803 51.4302 36.9425 51.7058 36.6669Z" fill="white"/>
<path d="M60.0878 38.9204C59.5455 38.9204 59.021 38.8226 58.5143 38.6271C58.2565 38.5204 58.0121 38.3959 57.7809 38.2537C57.5498 38.1026 57.332 37.9292 57.1276 37.7337C56.7009 37.3336 56.3586 36.8581 56.1008 36.3069C55.8342 35.738 55.6875 35.1068 55.6608 34.4135C55.643 34.0668 55.6564 33.7334 55.7008 33.4134C55.7542 33.0845 55.8342 32.7645 55.9408 32.4533C56.1631 31.8755 56.4786 31.3733 56.8876 30.9466C57.2965 30.511 57.7676 30.1776 58.301 29.9465C58.8432 29.7154 59.4077 29.5998 59.9944 29.5998C60.5278 29.5998 61.0256 29.6976 61.4878 29.8932C61.959 30.0888 62.3768 30.3732 62.7413 30.7466C63.1324 31.1644 63.4302 31.6444 63.6346 32.1867C63.7413 32.4711 63.8258 32.7778 63.888 33.1067C63.9502 33.4267 63.9858 33.769 63.9947 34.1334C64.0124 34.6135 63.9858 35.0491 63.9147 35.4402C63.8524 35.8224 63.7591 36.1647 63.6346 36.4669C63.5191 36.7692 63.3857 37.0314 63.2346 37.2536C63.0835 37.467 62.9368 37.6492 62.7946 37.8003C62.4479 38.1648 62.0434 38.4448 61.5812 38.6404C61.1189 38.8271 60.6211 38.9204 60.0878 38.9204ZM59.9944 31.3199C59.6566 31.3199 59.3233 31.3911 58.9944 31.5333C58.6743 31.6755 58.3899 31.8755 58.141 32.1333C57.9543 32.3378 57.7765 32.6178 57.6076 32.9734C57.4387 33.3201 57.3631 33.7734 57.3809 34.3335C57.4076 34.7957 57.5054 35.2046 57.6743 35.5602C57.8432 35.9158 58.0521 36.218 58.301 36.4669C58.5588 36.7069 58.8432 36.8892 59.1544 37.0136C59.4655 37.1381 59.7766 37.2003 60.0878 37.2003C60.6833 37.2003 61.1723 37.0003 61.5545 36.6003C61.8123 36.3425 61.999 36.0091 62.1145 35.6002C62.239 35.1913 62.2923 34.7201 62.2746 34.1868C62.2568 33.6623 62.1768 33.2178 62.0345 32.8534C61.8923 32.4889 61.7145 32.1955 61.5012 31.9733C61.2878 31.7422 61.0478 31.5777 60.7811 31.4799C60.5233 31.3733 60.2611 31.3199 59.9944 31.3199Z" fill="white"/>
<path d="M18.548 53.9778C18.3168 51.1154 18.0857 47.7374 18.2102 43.9861C18.2279 43.346 17.7124 42.8127 17.0901 42.7949C16.5034 42.7771 16.0056 43.2038 15.9167 43.7727C15.1878 43.1149 14.3344 42.7771 13.3565 42.7771C12.0765 42.7771 10.8142 43.3994 9.88965 44.5194C9.4274 45.0706 9.05405 45.7106 8.78736 46.4395C8.5029 47.204 8.37845 48.0396 8.32511 48.9108C8.27178 50.8309 8.85848 52.5199 10.0497 53.7289C10.4941 54.2089 11.0097 54.5645 11.5786 54.8312C12.1653 55.0979 12.7343 55.2223 13.3565 55.2223C13.8366 55.2223 14.3344 55.1334 14.85 54.9378C15.33 54.7245 15.7745 54.4578 16.1478 54.0489L16.2189 53.96C16.2367 54.0133 16.2367 54.0667 16.2367 54.1556C16.29 54.7778 16.7701 55.2223 17.3923 55.2223H17.4812C18.1213 55.169 18.6013 54.6178 18.548 53.9778ZM14.5122 52.4132C14.1921 52.751 13.801 52.9111 13.3565 52.9111C12.7876 52.9111 12.1831 52.6266 11.7031 52.1288C10.9742 51.3643 10.583 50.262 10.6364 48.9819C10.6897 46.564 12.112 45.0883 13.3565 45.0883C14.6011 45.0883 15.4722 46.6351 15.4722 49.053C15.4722 50.5998 15.1344 51.7732 14.5122 52.4132Z" fill="white"/>
<path d="M32.2476 55.2223C32.8698 55.2223 33.3321 54.7601 33.3854 54.1378C33.3854 54.0667 33.4921 52.1821 33.4032 50.0309C33.3321 48.733 33.2076 47.6485 33.0298 46.7418C32.7631 45.4617 32.372 44.5372 31.8386 43.9505C31.3586 43.4349 30.8252 43.1682 30.203 43.1505C29.7585 43.1327 29.1007 43.2393 28.4607 43.8616C28.0873 44.2172 27.7495 44.6972 27.4828 45.3017C27.3584 45.5328 27.2695 45.7995 27.145 46.1017L27.1095 45.9773C26.7717 44.5728 26.3805 43.7372 25.8294 43.2393C25.3138 42.7949 24.7982 42.7238 24.4604 42.7771C23.8737 42.8304 23.3759 43.1505 22.9492 43.7372C22.7359 44.0394 22.5225 44.4483 22.2914 44.9639L22.2203 43.8616C22.1669 43.2216 21.6336 42.7238 20.9935 42.7771C20.3535 42.8304 19.8557 43.3638 19.909 44.0038L20.5846 54.1378C20.638 54.7601 21.1002 55.2045 21.7225 55.2223C22.3447 55.2223 22.8248 54.7778 22.8781 54.1556C22.8781 54.1378 23.0737 52.0221 23.447 49.7997C23.8737 47.3285 24.2826 46.0662 24.5671 45.515C24.7982 46.1373 25.1182 47.3463 25.3849 49.782C25.6338 51.9866 25.7049 54.0845 25.6872 54.0845C25.7049 54.7067 26.2027 55.2045 26.825 55.2223H26.8428C27.465 55.2223 27.9451 54.7601 27.9984 54.1378C27.9984 54.12 28.1406 51.9866 28.5496 49.782C28.8162 48.5019 29.0474 47.4885 29.3852 46.7062C29.723 45.8528 29.9896 45.5684 30.1141 45.4795C30.203 45.6039 30.4341 45.8884 30.6475 46.7418C30.8608 47.5063 31.003 48.5019 31.0742 49.7642C31.2164 51.9154 31.0919 53.9778 31.0919 53.9956C31.0386 54.6356 31.5364 55.169 32.1764 55.2223H32.2476Z" fill="white"/>
<path d="M40.5488 55.2223C41.9711 55.2223 43.2334 54.7067 44.1579 53.7289C44.9224 52.9111 45.8469 51.4176 45.758 48.8397C45.7402 47.8619 45.5624 47.0085 45.2779 46.244C45.0113 45.515 44.6023 44.875 44.0868 44.3239C43.1089 43.3282 41.8466 42.7949 40.4243 42.7949C38.8598 42.7949 37.3663 43.4349 36.2818 44.5905C35.7307 45.1595 35.3218 45.8351 35.0195 46.5996C34.7351 47.4352 34.5928 48.2885 34.6462 49.213C34.6817 50.1375 34.8773 50.9732 35.2329 51.7376C35.5707 52.4666 36.0329 53.1066 36.6019 53.64C37.153 54.1556 37.7575 54.5467 38.4509 54.8312C39.1265 55.0979 39.8198 55.2223 40.5488 55.2223ZM40.4243 45.0883C41.8288 45.0883 43.3756 46.1195 43.4645 48.9108C43.5178 50.3331 43.1978 51.4354 42.5044 52.1288C41.9888 52.6621 41.3488 52.9288 40.5488 52.9288C38.8953 52.9288 37.0819 51.5776 36.9397 49.1064C36.8863 47.6129 37.4552 46.724 37.953 46.1729C38.6109 45.4795 39.5176 45.0883 40.4243 45.0883Z" fill="white"/>
<path d="M48.4862 55.2579C49.1085 55.2579 49.5707 54.7956 49.624 54.1734C49.7663 51.7554 50.1041 48.9641 51.0464 46.5996C51.2953 45.9951 51.5619 45.5684 51.8464 45.3195C52.042 45.1772 52.2731 45.0528 52.7709 45.1772C53.5887 45.4261 54.2288 46.4218 54.5488 47.2574C54.7799 47.8796 55.42 48.1641 56.0422 47.933C56.6289 47.7018 56.9312 47.0618 56.7178 46.4395C56.5045 45.8884 56.1667 45.1239 55.5444 44.4128C54.9221 43.6838 54.211 43.186 53.3932 42.9549C52.2553 42.6526 51.2597 42.8482 50.3885 43.5416C49.9974 43.8616 49.6596 44.2527 49.3929 44.7328L49.3574 43.9149C49.304 43.2749 48.7884 42.7593 48.1484 42.8127C47.5084 42.866 46.9928 43.3816 47.0461 44.0216L47.0994 45.1595C47.2417 48.1285 47.3839 51.0976 47.3306 54.0667C47.3128 54.7067 47.7928 55.2045 48.4329 55.2579H48.4862Z" fill="white"/>
<path d="M22.9028 24.2521C25.6825 27.9302 31.1528 25.7599 31.1528 22.0248C31.1528 25.7599 36.6235 27.9304 39.4035 24.2522C42.2767 20.4496 39.4448 13.7885 31.153 9.96214C22.8616 13.7885 20.0296 20.4496 22.9028 24.2521Z" fill="white"/>
<path d="M22.8895 8.54274C24.0638 10.2082 24.0911 12.1139 23.0713 12.8631C21.9972 13.6325 20.2299 12.8669 19.0557 11.2014C17.8815 9.53592 17.8541 7.63027 18.8739 6.88105C19.948 6.11167 21.7696 6.85711 22.8895 8.54274Z" fill="white"/>
<path d="M40.0631 7.80446C38.8708 9.4211 38.7151 11.3329 39.7499 12.1231C40.7847 12.9133 42.5773 12.2481 43.8239 10.6113C45.0162 8.99469 45.172 7.08288 44.1372 6.29268C43.1023 5.50248 41.2554 6.18782 40.0631 7.80446Z" fill="white"/>
<path d="M29.6116 4.03809C29.957 6.13472 29.1029 7.99665 27.7527 8.18866C26.4026 8.38067 25.0514 6.90447 24.706 4.80784C24.3606 2.71121 25.2147 0.84928 26.5648 0.657268C27.915 0.465257 29.2661 1.94146 29.6116 4.03809Z" fill="white"/>
<path d="M32.4737 4.0553C32.0665 6.12221 32.8263 8.00326 34.1748 8.30628C35.5031 8.55498 36.939 7.09515 37.3462 5.02824C37.7534 2.96133 36.9936 1.08028 35.6451 0.777257C34.3168 0.528556 32.881 1.98839 32.4737 4.0553Z" fill="white"/>
</svg>
