<svg width="1224" height="800" viewBox="0 0 1224 800" fill="none" xmlns="http://www.w3.org/2000/svg">
<path d="M172.435 771.275C170.955 775.122 174.506 777.489 176.577 782.223C179.536 789.325 184.27 789.916 186.342 786.957C188.413 783.999 185.75 780.152 187.229 776.601C188.413 773.051 193.147 771.571 193.443 768.316C193.739 764.766 189.892 762.103 183.087 765.653C178.057 767.725 173.914 767.429 172.435 771.275Z" fill="white" fill-opacity="0.03"/>
<path d="M165.926 779.56C169.772 778.377 173.323 779.56 174.21 782.223C174.802 784.59 172.435 787.549 168.589 788.733C164.742 789.916 161.191 788.733 160.304 786.07C159.712 783.703 162.079 780.744 165.926 779.56Z" fill="white" fill-opacity="0.03"/>
<path d="M173.029 760.623C175.1 763.878 178.651 765.358 180.722 764.174C182.793 762.695 182.793 758.848 180.722 755.593C178.651 752.338 175.1 750.859 173.029 752.043C170.662 753.522 170.958 757.369 173.029 760.623Z" fill="white" fill-opacity="0.03"/>
<path d="M161.488 768.316C165.631 769.204 168.59 771.867 167.998 774.53C167.406 777.193 163.855 778.673 159.713 778.081C155.57 777.193 152.612 774.53 153.203 771.867C153.795 769.204 157.346 767.725 161.488 768.316Z" fill="white" fill-opacity="0.03"/>
<path d="M162.376 766.245C165.927 768.316 170.069 768.316 171.253 765.949C172.732 763.582 170.957 760.032 167.11 757.96C163.559 755.889 159.417 755.889 158.233 758.256C156.754 760.623 158.825 764.174 162.376 766.245Z" fill="white" fill-opacity="0.03"/>
<path d="M1027.26 438.4C1023.12 446.981 1030.22 452.899 1033.77 464.438C1038.8 481.008 1049.15 483.671 1054.48 477.457C1059.81 471.54 1055.07 461.775 1058.92 454.082C1062.47 446.389 1073.42 444.614 1074.9 436.625C1076.38 428.636 1068.39 421.83 1051.82 428.044C1040.57 431.89 1031.7 429.819 1027.26 438.4Z" fill="white" fill-opacity="0.03"/>
<path d="M1010.69 455.858C1019.57 454.378 1027.56 457.929 1028.44 463.551C1029.33 469.173 1023.12 475.09 1014.24 476.57C1005.36 478.049 997.375 474.499 996.488 468.877C995.304 463.255 1001.81 457.337 1010.69 455.858Z" fill="white" fill-opacity="0.03"/>
<path d="M1031.11 414.433C1035.25 422.422 1042.65 426.564 1047.97 423.901C1053 421.238 1053.89 412.658 1049.75 404.669C1045.6 396.68 1038.21 392.537 1032.88 395.2C1027.85 397.863 1026.96 406.444 1031.11 414.433Z" fill="white" fill-opacity="0.03"/>
<path d="M1003.29 429.227C1012.46 431.89 1018.38 438.696 1016.61 444.614C1014.83 450.531 1006.25 453.194 997.079 450.236C987.906 447.573 981.988 440.767 983.764 434.849C985.539 429.227 994.416 426.564 1003.29 429.227Z" fill="white" fill-opacity="0.03"/>
<path d="M1005.66 424.789C1013.35 430.411 1022.52 431.003 1026.08 426.269C1029.63 421.239 1026.37 412.954 1018.97 407.036C1011.28 401.414 1002.11 400.822 998.558 405.556C994.711 410.587 997.966 419.167 1005.66 424.789Z" fill="white" fill-opacity="0.03"/>
<path d="M599.108 45.1634C598.516 38.6538 592.007 37.7661 586.089 32.1442C577.212 24.1552 570.111 26.5224 569.223 31.8484C568.336 37.1744 574.549 41.3168 574.845 47.2346C575.437 52.8565 569.815 57.8866 571.591 63.2126C573.366 68.5386 580.763 69.4263 588.16 60.2537C593.486 53.7442 599.404 51.6729 599.108 45.1634Z" fill="white" fill-opacity="0.03"/>
<path d="M602.658 28.8895C597.924 33.032 592.006 33.6237 589.343 30.6648C586.68 27.706 588.455 21.7882 593.19 17.9416C597.924 14.0951 603.842 13.2074 606.505 16.1663C608.872 19.1252 607.097 24.7471 602.658 28.8895Z" fill="white" fill-opacity="0.03"/>
<path d="M605.322 60.5496C599.996 57.2949 594.078 57.5907 592.007 60.8455C589.936 64.1003 592.599 69.7222 597.925 72.6811C603.251 75.9359 609.168 75.64 611.24 72.3852C613.015 69.1304 610.352 63.8044 605.322 60.5496Z" fill="white" fill-opacity="0.03"/>
<path d="M616.27 41.9086C610.056 43.6839 603.842 41.6127 602.955 37.4703C601.771 33.3278 606.21 28.8895 612.423 27.1141C618.637 25.3388 624.851 27.41 625.738 31.5525C626.922 35.6949 622.483 40.4292 616.27 41.9086Z" fill="white" fill-opacity="0.03"/>
<path d="M616.566 45.4594C610.056 44.8677 604.435 47.8265 604.139 51.969C603.843 56.1114 608.577 59.958 615.087 60.5498C621.596 61.1416 627.218 58.1827 627.514 54.0402C628.106 49.8978 623.076 46.0512 616.566 45.4594Z" fill="white" fill-opacity="0.03"/>
<path d="M36.3253 378.63C40.1719 380.11 42.539 377.151 46.9773 375.376C53.7828 373.009 54.6705 368.57 52.0075 366.499C49.3444 364.428 45.4979 366.499 42.2431 365.02C38.9883 363.54 38.1007 359.102 34.55 358.51C31.2952 357.918 28.6322 361.469 31.2952 368.274C33.3664 373.304 32.7747 376.855 36.3253 378.63Z" fill="white" fill-opacity="0.03"/>
<path d="M44.0192 385.436C43.1315 381.885 44.6109 378.335 46.9781 377.743C49.3452 377.151 52.0082 379.814 52.6 383.661C53.4876 387.211 52.0082 390.762 49.6411 391.354C47.274 391.65 44.9068 388.987 44.0192 385.436Z" fill="white" fill-opacity="0.03"/>
<path d="M26.2651 377.447C29.5199 375.672 31.2952 372.417 30.1117 370.346C28.9281 368.274 25.3774 367.979 22.1227 370.05C18.8679 371.825 17.0925 375.08 18.2761 377.151C19.4597 379.222 23.0103 379.222 26.2651 377.447Z" fill="white" fill-opacity="0.03"/>
<path d="M33.0694 388.987C33.9571 385.14 36.9159 382.477 39.2831 383.069C41.6502 383.661 43.1296 387.211 41.9461 391.058C41.0584 394.904 38.0995 397.567 35.7324 396.976C33.3653 396.384 31.8858 392.833 33.0694 388.987Z" fill="white" fill-opacity="0.03"/>
<path d="M31 388.099C33.3671 384.844 33.3671 380.998 31.2959 379.518C29.2246 378.039 25.674 379.518 23.3068 382.773C20.9397 386.028 20.9397 389.874 23.011 391.354C25.3781 392.833 28.9287 391.354 31 388.099Z" fill="white" fill-opacity="0.03"/>
<path d="M279.252 172.396C280.435 165.59 274.222 162.927 269.783 155.826C262.978 145.47 255.581 145.766 252.918 151.092C250.55 156.122 255.581 162.04 254.397 167.957C253.509 173.875 246.408 177.426 247 183.048C247.592 188.67 254.397 191.629 264.457 184.527C271.263 179.497 277.772 179.201 279.252 172.396Z" fill="white" fill-opacity="0.03"/>
<path d="M287.241 157.305C281.619 159.968 275.405 159.377 273.63 155.53C271.854 151.684 275.109 146.653 280.731 143.695C286.353 141.032 292.567 141.623 294.342 145.47C296.117 149.021 292.863 154.347 287.241 157.305Z" fill="white" fill-opacity="0.03"/>
<path d="M281.323 189.557C276.885 184.823 270.967 183.64 268.008 186.303C265.049 189.261 266.233 195.179 270.671 199.913C275.109 204.648 281.027 205.831 283.986 203.168C286.945 200.209 285.761 193.996 281.323 189.557Z" fill="white" fill-opacity="0.03"/>
<path d="M297.3 173.875C290.495 173.875 285.169 170.325 285.169 165.886C285.169 161.448 290.791 157.897 297.3 158.193C303.81 158.489 309.432 161.744 309.432 166.182C309.432 170.325 304.106 173.875 297.3 173.875Z" fill="white" fill-opacity="0.03"/>
<path d="M296.709 177.426C290.495 175.059 283.986 176.538 282.506 180.681C281.027 184.823 284.873 189.853 291.087 192.22C297.301 194.588 303.81 193.108 305.29 188.966C306.769 184.823 302.922 179.793 296.709 177.426Z" fill="white" fill-opacity="0.03"/>
<path d="M909.497 315.902C899.437 312.351 893.519 320.636 881.092 325.666C863.042 333.064 861.267 344.899 868.664 350.225C875.766 355.551 886.418 349.042 894.998 352.888C903.875 356.143 907.13 367.979 916.302 368.866C925.179 369.754 931.984 359.99 923.7 342.236C918.078 330.401 919.261 320.044 909.497 315.902Z" fill="white" fill-opacity="0.03"/>
<path d="M888.192 299.036C890.855 308.801 887.6 317.973 881.387 319.749C875.173 321.524 867.776 314.718 865.409 304.954C862.746 295.19 866.001 286.017 872.214 284.242C878.428 282.467 885.529 289.272 888.192 299.036Z" fill="white" fill-opacity="0.03"/>
<path d="M936.422 317.973C927.841 323.299 923.995 332.176 927.545 337.798C931.096 343.42 940.86 343.42 949.145 337.798C957.726 332.472 961.573 323.595 958.022 317.973C954.767 312.647 945.003 312.647 936.422 317.973Z" fill="white" fill-opacity="0.03"/>
<path d="M917.188 288.384C915.117 298.74 908.015 306.138 901.21 304.954C894.404 303.771 890.558 294.006 892.629 283.65C894.7 273.294 901.802 265.897 908.607 267.08C915.413 268.56 919.259 278.028 917.188 288.384Z" fill="white" fill-opacity="0.03"/>
<path d="M922.514 290.456C916.893 299.628 917.188 309.688 923.106 313.239C929.024 316.79 938.197 312.351 943.818 303.179C949.44 294.006 949.144 283.946 943.227 280.395C937.013 276.845 927.84 281.283 922.514 290.456Z" fill="white" fill-opacity="0.03"/>
<path d="M494.067 765.949C495.546 761.511 491.7 759.44 489.333 754.114C485.782 746.716 481.048 746.125 478.681 749.379C476.609 752.634 479.568 756.777 478.089 760.623C476.905 764.47 471.875 765.949 471.875 769.796C471.579 773.642 476.018 776.305 483.119 772.459C488.149 770.092 492.587 770.388 494.067 765.949Z" fill="white" fill-opacity="0.03"/>
<path d="M500.577 756.777C496.435 757.96 492.588 757.073 491.701 754.41C490.813 751.747 493.476 748.788 497.618 747.308C501.761 746.125 505.607 747.012 506.495 749.675C507.383 752.338 504.72 755.593 500.577 756.777Z" fill="white" fill-opacity="0.03"/>
<path d="M493.769 777.489C491.402 773.938 487.556 772.459 485.188 773.938C482.821 775.418 483.117 779.56 485.484 783.111C487.852 786.662 491.698 788.141 494.065 786.662C496.432 784.886 496.136 781.04 493.769 777.489Z" fill="white" fill-opacity="0.03"/>
<path d="M505.607 768.908C501.169 768.317 497.914 765.358 498.506 762.399C498.802 759.44 502.944 757.665 507.383 758.552C511.821 759.144 515.076 762.103 514.484 765.062C514.188 767.725 510.046 769.5 505.607 768.908Z" fill="white" fill-opacity="0.03"/>
<path d="M505.015 770.979C501.169 768.908 496.73 769.204 495.547 771.571C494.067 774.234 496.138 777.785 499.985 780.152C503.832 782.223 508.27 781.927 509.454 779.56C510.933 776.897 508.862 773.051 505.015 770.979Z" fill="white" fill-opacity="0.03"/>
<path d="M1180.53 523.912C1177.87 532.493 1185.26 536.931 1189.7 546.696C1196.51 561.194 1206.27 562.082 1210.41 555.868C1214.56 549.655 1208.93 541.37 1211.3 533.972C1213.67 526.575 1223.14 523.32 1223.43 515.923C1223.73 508.526 1215.44 503.496 1201.24 510.893C1192.07 516.219 1183.49 515.627 1180.53 523.912Z" fill="white" fill-opacity="0.03"/>
<path d="M1167.81 541.961C1175.8 539.298 1183.49 541.369 1184.97 546.695C1186.74 551.726 1181.42 557.939 1173.72 560.602C1165.74 563.265 1158.04 561.194 1156.56 555.868C1155.08 550.542 1159.82 544.624 1167.81 541.961Z" fill="white" fill-opacity="0.03"/>
<path d="M1181.12 501.72C1185.86 508.526 1193.25 511.485 1197.69 508.23C1202.13 504.975 1201.54 496.986 1196.8 490.477C1192.07 483.671 1184.67 480.712 1180.23 483.967C1175.8 487.222 1176.09 494.915 1181.12 501.72Z" fill="white" fill-opacity="0.03"/>
<path d="M1157.75 518.586C1166.33 519.77 1172.84 525.391 1171.95 531.013C1171.06 536.635 1163.37 540.186 1154.79 539.002C1146.21 537.819 1139.7 532.197 1140.58 526.575C1141.47 520.953 1148.87 517.402 1157.75 518.586Z" fill="white" fill-opacity="0.03"/>
<path d="M1159.23 514.444C1166.92 518.586 1175.2 517.994 1177.87 512.964C1180.53 507.934 1176.39 500.537 1168.69 496.394C1161 492.252 1152.72 492.844 1150.05 497.874C1147.39 502.904 1151.53 510.301 1159.23 514.444Z" fill="white" fill-opacity="0.03"/>
<path d="M47.5703 743.166C48.1621 753.818 58.2223 756.185 67.6908 765.357C81.5976 779.264 93.1372 776.009 95.2085 767.429C97.2797 758.552 87.2195 751.451 87.2195 741.982C86.6277 732.514 96.392 724.821 93.729 716.24C91.066 707.659 79.5263 705.292 66.5072 719.791C57.6305 729.851 47.5703 732.514 47.5703 743.166Z" fill="white" fill-opacity="0.03"/>
<path d="M40.471 769.204C48.46 762.99 58.2243 762.103 62.0709 767.429C65.9174 772.459 62.6626 781.631 54.9695 787.845C46.9805 794.059 37.2162 794.946 33.3696 789.62C29.2272 784.59 32.4819 775.418 40.471 769.204Z" fill="white" fill-opacity="0.03"/>
<path d="M38.9899 717.719C47.2748 723.341 57.0391 723.637 60.5898 718.311C64.1405 712.985 60.5898 704.108 52.3049 698.191C44.02 692.569 34.2557 692.273 30.705 697.599C27.1543 702.925 30.705 712.097 38.9899 717.719Z" fill="white" fill-opacity="0.03"/>
<path d="M19.1658 746.717C29.5219 744.645 38.9904 748.196 40.4698 755.001C41.9492 761.807 34.552 768.908 24.1959 770.979C13.8398 773.051 4.37133 769.5 2.89189 762.695C1.70833 756.185 8.80967 749.084 19.1658 746.717Z" fill="white" fill-opacity="0.03"/>
<path d="M39.8731 731.872C40.882 725.083 33.183 718.314 22.6768 716.753C12.1706 715.191 2.83574 719.429 1.82682 726.217C0.817895 733.006 8.51696 739.775 19.0232 741.336C29.5293 742.898 38.8642 738.66 39.8731 731.872Z" fill="white" fill-opacity="0.03"/>
<path d="M660.357 174.467C660.061 184.231 669.233 187.19 676.926 196.659C688.466 210.27 699.414 208.494 702.077 200.505C704.74 192.516 696.159 185.415 696.751 176.538C697.047 167.957 706.515 161.448 704.74 153.459C702.965 145.47 692.313 142.215 679.293 154.642C670.417 162.631 660.948 164.407 660.357 174.467Z" fill="white" fill-opacity="0.03"/>
<path d="M651.48 197.842C659.173 192.812 668.345 192.812 671.6 197.842C674.855 202.872 671.008 211.157 663.315 216.187C655.622 221.217 646.449 221.217 643.195 216.187C640.236 210.861 643.786 202.872 651.48 197.842Z" fill="white" fill-opacity="0.03"/>
<path d="M654.143 150.204C661.245 156.122 670.121 157.01 673.968 152.571C677.814 147.837 674.856 139.552 667.754 133.634C660.653 127.717 651.776 126.829 647.93 131.267C644.379 135.706 647.042 144.286 654.143 150.204Z" fill="white" fill-opacity="0.03"/>
<path d="M634.023 175.355C643.787 174.171 652.368 178.313 652.96 184.527C653.552 190.741 646.45 196.954 636.686 198.138C626.922 199.322 618.341 195.179 617.749 188.965C616.861 182.752 624.259 176.538 634.023 175.355Z" fill="white" fill-opacity="0.03"/>
<path d="M634.318 170.325C643.787 172.692 652.663 169.437 654.143 163.223C655.622 157.01 649.113 150.204 639.644 148.133C630.176 145.766 621.299 149.02 619.82 155.234C618.34 161.448 624.85 167.957 634.318 170.325Z" fill="white" fill-opacity="0.03"/>
<path d="M48.4572 72.681C46.9778 67.9468 42.2436 67.9468 36.9176 64.3961C29.2244 59.366 24.1943 62.029 23.8984 66.1715C23.8984 70.3139 29.2244 72.681 30.1121 77.1194C31.2957 81.5577 27.745 85.996 29.8162 89.5467C31.8874 93.3933 37.5093 93.0974 41.9477 85.1084C45.2025 80.0783 49.6408 77.7111 48.4572 72.681Z" fill="white" fill-opacity="0.03"/>
<path d="M49.0497 59.9578C46.0908 63.5085 41.6524 64.988 39.2853 62.9167C36.9182 60.8455 37.51 56.4072 40.4689 52.8565C43.4278 49.3058 47.8661 47.8264 50.2332 49.8976C52.6003 51.9688 52.3044 56.4072 49.0497 59.9578Z" fill="white" fill-opacity="0.03"/>
<path d="M55.2633 83.6289C50.8249 81.8536 46.3866 82.7413 45.2031 85.7001C44.0195 88.659 46.6825 92.2097 51.1208 93.985C55.5592 95.7604 59.9975 94.8727 61.1811 91.9138C62.3646 89.2508 59.7016 85.4043 55.2633 83.6289Z" fill="white" fill-opacity="0.03"/>
<path d="M61.1816 68.2427C56.7432 70.3139 51.7131 69.7222 50.5295 66.7633C49.0501 63.8044 51.7131 59.6619 56.4473 57.5907C60.8857 55.5195 65.9158 56.1113 67.0993 59.0702C68.2829 62.029 65.9158 66.1715 61.1816 68.2427Z" fill="white" fill-opacity="0.03"/>
<path d="M61.7721 70.6099C56.7419 70.9058 52.8954 73.8647 53.1913 77.1195C53.4872 80.3743 57.6296 82.7414 62.6597 82.4455C67.6898 82.1496 71.5364 79.1907 71.2405 75.9359C71.2405 72.6812 66.8022 70.314 61.7721 70.6099Z" fill="white" fill-opacity="0.03"/>
<path d="M1183.19 776.897C1181.71 771.867 1176.68 771.867 1171.06 768.316C1162.78 763.286 1157.75 765.949 1157.45 770.388C1157.45 774.826 1163.07 777.193 1164.26 781.631C1165.44 786.07 1161.89 790.804 1163.96 794.651C1166.33 798.497 1172.24 798.201 1176.68 789.916C1179.94 784.59 1184.38 782.223 1183.19 776.897Z" fill="white" fill-opacity="0.03"/>
<path d="M1183.78 763.582C1180.53 767.429 1176.09 768.908 1173.43 766.837C1171.06 764.766 1171.36 760.031 1174.61 756.185C1177.87 752.338 1182.3 750.859 1184.97 752.93C1187.33 755.001 1186.74 759.736 1183.78 763.582Z" fill="white" fill-opacity="0.03"/>
<path d="M1190.29 788.437C1185.56 786.662 1180.83 787.549 1179.64 790.508C1178.46 793.467 1181.42 797.314 1185.86 799.089C1190.59 800.864 1195.32 799.977 1196.51 797.018C1197.69 794.059 1195.03 790.212 1190.29 788.437Z" fill="white" fill-opacity="0.03"/>
<path d="M1196.51 771.867C1191.77 774.234 1186.74 773.347 1185.26 770.388C1183.78 767.429 1186.45 762.991 1191.18 760.919C1195.92 758.552 1200.95 759.44 1202.43 762.399C1203.91 765.358 1201.24 769.796 1196.51 771.867Z" fill="white" fill-opacity="0.03"/>
<path d="M1197.1 774.53C1191.77 775.122 1187.93 778.081 1188.22 781.336C1188.52 784.59 1192.96 786.957 1198.28 786.662C1203.61 786.366 1207.46 783.111 1207.16 779.856C1206.86 776.601 1202.43 774.234 1197.1 774.53Z" fill="white" fill-opacity="0.03"/>
<path d="M103.198 480.12C103.494 475.09 99.0555 473.611 95.2089 468.581C89.587 461.479 84.261 462.071 82.7816 465.918C81.3021 469.764 85.4446 473.611 84.8528 478.049C84.5569 482.487 79.5268 485.446 80.4145 489.589C81.0062 493.731 86.3322 495.507 93.1377 489.589C97.8719 485.742 102.606 484.855 103.198 480.12Z" fill="white" fill-opacity="0.03"/>
<path d="M108.228 468.285C104.086 470.652 99.6477 470.356 98.1683 467.989C96.6888 465.622 98.76 461.479 102.607 459.112C106.749 456.745 111.187 457.041 112.667 459.408C114.146 462.071 112.075 465.918 108.228 468.285Z" fill="white" fill-opacity="0.03"/>
<path d="M105.862 492.252C102.311 488.997 97.8726 488.405 95.8014 490.772C93.7302 493.139 94.9137 497.282 98.4644 500.537C102.015 503.791 106.453 504.383 108.525 502.016C110.3 499.945 109.116 495.507 105.862 492.252Z" fill="white" fill-opacity="0.03"/>
<path d="M116.514 480.12C111.484 480.416 107.341 478.345 107.045 475.09C106.749 471.835 110.596 468.877 115.626 468.581C120.656 468.285 124.799 470.356 125.095 473.611C125.39 476.866 121.544 479.529 116.514 480.12Z" fill="white" fill-opacity="0.03"/>
<path d="M116.217 482.487C111.483 481.008 106.749 482.487 106.157 485.742C105.269 488.701 108.524 492.252 113.258 493.731C117.992 495.211 122.727 493.731 123.318 490.476C124.206 487.518 120.951 483.967 116.217 482.487Z" fill="white" fill-opacity="0.03"/>
<path d="M1178.75 379.222C1174.31 386.028 1179.34 391.946 1180.82 401.71C1182.9 416.208 1191.18 419.759 1196.51 415.321C1201.83 410.882 1198.87 402.302 1203.31 396.384C1207.45 390.466 1216.63 390.17 1218.99 383.661C1221.36 377.151 1215.44 370.641 1200.94 373.304C1190.88 375.672 1183.49 372.713 1178.75 379.222Z" fill="white" fill-opacity="0.03"/>
<path d="M1162.48 391.65C1170.17 391.65 1176.39 395.496 1176.39 400.23C1176.39 405.261 1170.47 409.107 1162.78 409.403C1155.08 409.403 1148.87 405.556 1148.87 400.822C1148.87 395.792 1154.79 391.65 1162.48 391.65Z" fill="white" fill-opacity="0.03"/>
<path d="M1184.97 359.694C1187.33 366.795 1193.25 371.529 1197.69 369.754C1202.42 368.274 1204.2 361.173 1201.83 353.776C1199.47 346.674 1193.55 341.94 1189.11 343.716C1184.37 345.491 1182.6 352.592 1184.97 359.694Z" fill="white" fill-opacity="0.03"/>
<path d="M1159.82 368.57C1166.92 372.121 1171.06 378.63 1168.99 383.069C1166.92 387.803 1159.23 388.691 1151.83 385.436C1144.43 381.885 1140.58 375.376 1142.66 370.937C1145.02 366.203 1152.72 365.02 1159.82 368.57Z" fill="white" fill-opacity="0.03"/>
<path d="M1179.22 368.895C1182.95 365.224 1181.41 357.625 1175.79 351.922C1170.17 346.219 1162.59 344.572 1158.87 348.243C1155.14 351.914 1156.68 359.513 1162.3 365.216C1167.92 370.919 1175.5 372.566 1179.22 368.895Z" fill="white" fill-opacity="0.03"/>
<path d="M918.374 658.837C916.894 650.848 908.905 649.961 900.916 643.747C889.081 634.574 880.796 637.829 879.908 644.93C879.021 651.736 887.306 656.174 888.193 663.276C889.377 670.377 882.867 677.182 885.826 683.396C888.785 689.61 897.662 690.497 906.242 678.07C912.16 670.081 919.557 666.826 918.374 658.837Z" fill="white" fill-opacity="0.03"/>
<path d="M921.332 638.421C916.006 643.747 908.608 645.522 905.058 641.972C901.507 638.421 903.282 631.32 908.608 625.698C913.934 620.372 921.332 618.596 924.882 622.147C928.433 625.698 926.954 632.799 921.332 638.421Z" fill="white" fill-opacity="0.03"/>
<path d="M927.547 677.478C920.741 673.928 913.344 674.519 910.977 678.958C908.61 683.396 912.457 689.906 919.262 693.456C926.067 697.007 933.465 696.415 935.832 691.977C937.903 687.539 934.352 681.029 927.547 677.478Z" fill="white" fill-opacity="0.03"/>
<path d="M939.679 653.511C931.986 656.174 924.292 654.103 922.813 649.369C921.333 644.635 926.068 638.125 933.761 635.758C941.454 633.095 949.147 635.166 950.627 639.9C952.106 644.635 947.372 650.848 939.679 653.511Z" fill="white" fill-opacity="0.03"/>
<path d="M940.271 657.654C932.282 657.358 925.476 661.5 925.476 666.826C925.476 672.152 931.69 676.591 939.975 676.591C947.964 676.887 954.769 672.744 954.769 667.418C954.769 662.092 948.555 657.95 940.271 657.654Z" fill="white" fill-opacity="0.03"/>
<path d="M518.627 624.514C524.84 625.994 527.799 620.668 534.901 617.117C545.257 611.791 545.553 604.69 540.818 601.731C536.084 599.068 530.462 603.506 524.84 601.731C519.514 600.252 516.555 593.446 511.229 593.446C505.903 593.446 502.353 599.66 508.271 609.72C512.709 616.23 512.709 622.443 518.627 624.514Z" fill="white" fill-opacity="0.03"/>
<path d="M532.237 633.095C530.166 627.473 531.35 621.851 534.9 620.372C538.451 618.893 543.185 622.443 545.257 628.065C547.328 633.687 546.144 639.309 542.594 640.788C539.043 642.268 534.309 638.717 532.237 633.095Z" fill="white" fill-opacity="0.03"/>
<path d="M502.649 624.81C507.383 620.964 509.159 615.638 506.791 612.679C504.424 609.72 498.507 610.312 493.772 613.862C489.038 617.709 487.263 623.035 489.63 625.994C491.997 628.953 497.915 628.657 502.649 624.81Z" fill="white" fill-opacity="0.03"/>
<path d="M515.668 641.084C516.26 634.87 520.106 629.84 524.249 630.432C528.391 630.728 531.054 636.35 530.462 642.564C529.871 648.777 526.024 653.807 521.882 653.216C518.035 652.92 515.076 647.594 515.668 641.084Z" fill="white" fill-opacity="0.03"/>
<path d="M512.413 640.196C515.076 634.575 514.484 628.361 510.638 626.586C507.087 624.81 501.761 628.065 499.098 633.687C496.435 639.309 497.027 645.522 500.873 647.298C504.72 649.073 509.75 646.114 512.413 640.196Z" fill="white" fill-opacity="0.03"/>
<path d="M257.355 665.939C249.662 674.815 255.876 683.988 256.171 698.487C256.467 719.791 267.711 726.004 276.292 720.678C284.577 715.352 282.21 702.333 289.311 694.936C296.117 687.243 309.432 688.426 313.87 679.55C318.308 670.673 310.911 660.021 289.903 661.796C275.404 662.98 265.64 657.654 257.355 665.939Z" fill="white" fill-opacity="0.03"/>
<path d="M232.207 681.029C243.155 682.213 251.144 689.018 250.553 695.824C249.961 702.629 240.196 707.659 229.544 706.476C218.597 705.292 210.608 698.487 211.199 691.681C211.791 684.284 221.26 679.846 232.207 681.029Z" fill="white" fill-opacity="0.03"/>
<path d="M286.509 656.081C293.392 654.664 297.182 644.822 294.975 634.097C292.768 623.373 285.399 615.828 278.516 617.244C271.633 618.661 267.843 628.503 270.05 639.227C272.258 649.952 279.627 657.497 286.509 656.081Z" fill="white" fill-opacity="0.03"/>
<path d="M243.237 669.986C247.248 663.628 242.543 653.456 232.73 647.266C222.917 641.076 211.71 641.213 207.7 647.571C203.69 653.929 208.394 664.101 218.207 670.29C228.02 676.48 239.227 676.344 243.237 669.986Z" fill="white" fill-opacity="0.03"/>
<path d="M236.643 642.859C243.745 652.032 254.101 655.879 260.019 651.144C265.936 646.706 265.049 635.462 257.947 626.29C250.846 617.117 240.49 613.271 234.572 618.005C228.654 622.739 229.542 633.687 236.643 642.859Z" fill="white" fill-opacity="0.03"/>
<path d="M1057.44 286.609C1058.03 278.916 1050.93 276.253 1044.72 268.56C1035.84 257.316 1027.26 258.499 1024.89 264.713C1022.53 270.927 1029.33 276.845 1028.44 283.946C1027.85 290.751 1020.45 295.486 1021.64 301.995C1022.82 308.505 1031.11 311.168 1041.76 301.699C1049.16 295.486 1056.55 294.302 1057.44 286.609Z" fill="white" fill-opacity="0.03"/>
<path d="M1064.84 268.264C1058.62 272.11 1051.52 271.814 1048.86 267.672C1046.49 263.53 1049.45 257.316 1055.96 253.469C1062.47 249.623 1069.28 249.919 1071.94 254.061C1074.6 258.204 1071.35 264.417 1064.84 268.264Z" fill="white" fill-opacity="0.03"/>
<path d="M1061.58 305.842C1055.96 301.107 1048.86 299.924 1045.9 303.475C1042.65 307.025 1044.72 313.831 1050.34 318.861C1055.96 323.595 1063.06 324.779 1066.02 321.228C1068.98 317.677 1066.91 310.872 1061.58 305.842Z" fill="white" fill-opacity="0.03"/>
<path d="M1078.45 286.313C1070.76 286.905 1063.95 283.354 1063.65 278.62C1063.36 273.59 1069.28 269.152 1076.97 268.264C1084.66 267.672 1091.47 271.223 1091.76 275.957C1092.06 281.283 1086.14 285.721 1078.45 286.313Z" fill="white" fill-opacity="0.03"/>
<path d="M1077.86 290.456C1070.46 288.384 1063.06 290.751 1061.88 295.486C1060.69 300.22 1065.43 305.842 1073.12 307.913C1080.52 309.984 1087.92 307.617 1089.1 302.883C1090.58 298.149 1085.55 292.527 1077.86 290.456Z" fill="white" fill-opacity="0.03"/>
<path d="M228.654 513.26C236.347 517.994 242.56 512.076 253.508 510.005C269.486 507.046 272.741 497.578 268.007 491.956C262.977 486.334 253.508 489.885 246.703 485.446C239.897 481.304 239.306 470.948 232.204 468.877C225.103 466.805 218.002 473.611 221.848 489.293C224.215 500.241 221.256 508.23 228.654 513.26Z" fill="white" fill-opacity="0.03"/>
<path d="M243.152 530.717C242.56 522.433 246.703 515.331 252.029 515.035C257.355 514.739 262.089 521.249 262.681 529.83C263.273 538.115 259.13 545.216 253.804 545.512C248.478 545.512 243.744 539.002 243.152 530.717Z" fill="white" fill-opacity="0.03"/>
<path d="M207.054 507.046C215.043 504.088 219.778 497.578 217.706 492.548C215.635 487.518 207.942 485.742 199.953 488.997C191.964 492.252 187.23 498.466 189.301 503.496C191.076 508.526 199.065 510.301 207.054 507.046Z" fill="white" fill-opacity="0.03"/>
<path d="M217.706 534.564C221.257 526.279 228.062 521.545 233.388 523.912C238.714 525.983 240.194 534.564 236.643 542.849C233.093 551.134 226.287 555.868 220.961 553.501C215.635 551.134 214.156 542.553 217.706 534.564Z" fill="white" fill-opacity="0.03"/>
<path d="M213.859 531.901C219.777 525.391 221.553 517.106 217.114 513.26C212.676 509.413 204.687 511.485 198.473 517.994C192.555 524.504 190.78 532.789 195.218 536.635C199.657 540.482 207.942 538.411 213.859 531.901Z" fill="white" fill-opacity="0.03"/>
<path d="M588.161 382.773C592.304 387.803 598.222 385.14 606.507 386.619C618.638 388.395 623.076 382.773 621.005 377.447C618.934 372.121 611.241 372.417 607.69 367.683C603.844 363.244 605.915 355.847 601.476 352.296C597.038 349.042 590.233 352 589.049 364.132C588.161 372.417 584.019 377.447 588.161 382.773Z" fill="white" fill-opacity="0.03"/>
<path d="M594.076 398.455C595.851 392.537 600.29 388.395 604.136 389.578C607.983 390.762 609.758 396.384 607.983 402.598C606.208 408.515 601.769 412.658 597.923 411.474C594.076 410.291 592.301 404.669 594.076 398.455Z" fill="white" fill-opacity="0.03"/>
<path d="M574.253 373.304C580.467 373.009 585.497 369.754 585.497 365.611C585.497 361.469 580.171 358.51 573.957 358.806C567.743 359.102 562.713 362.357 562.713 366.499C562.713 370.641 568.039 373.304 574.253 373.304Z" fill="white" fill-opacity="0.03"/>
<path d="M575.141 395.2C579.579 390.17 585.793 388.691 589.048 391.354C592.302 394.313 591.119 400.526 586.68 405.556C582.242 410.586 576.028 412.066 572.774 409.403C569.519 406.74 570.702 399.934 575.141 395.2Z" fill="white" fill-opacity="0.03"/>
<path d="M573.069 392.241C578.987 388.987 581.946 383.661 580.171 379.814C578.099 375.968 571.886 375.376 565.968 378.631C560.05 381.885 557.091 387.211 558.867 391.058C560.938 394.904 567.152 395.496 573.069 392.241Z" fill="white" fill-opacity="0.03"/>
<path d="M725.453 744.941C723.382 737.248 715.689 737.248 707.7 731.626C695.569 723.637 687.875 727.484 687.58 733.993C687.284 740.799 695.569 744.349 697.048 751.155C698.823 757.96 692.905 765.062 696.16 770.683C699.415 776.601 708.292 776.601 715.393 764.174C720.127 756.185 727.229 752.634 725.453 744.941Z" fill="white" fill-opacity="0.03"/>
<path d="M726.932 725.117C721.901 730.738 715.096 732.81 711.545 729.555C707.995 726.3 708.882 719.199 713.912 713.577C718.942 707.955 725.748 705.884 729.299 709.139C732.849 712.097 731.962 719.495 726.932 725.117Z" fill="white" fill-opacity="0.03"/>
<path d="M735.514 762.399C728.708 759.44 721.607 760.623 719.536 765.062C717.76 769.5 721.607 775.418 728.412 778.377C735.218 781.335 742.319 780.152 744.39 775.714C746.461 771.275 742.319 765.357 735.514 762.399Z" fill="white" fill-opacity="0.03"/>
<path d="M745.575 738.431C738.178 741.39 730.78 740.207 729.005 735.473C726.934 730.738 731.372 724.525 738.474 721.566C745.871 718.607 753.268 719.79 755.043 724.525C757.115 728.963 752.972 735.177 745.575 738.431Z" fill="white" fill-opacity="0.03"/>
<path d="M746.462 742.278C738.473 742.574 732.555 747.012 732.555 752.042C732.851 757.073 739.361 760.919 747.35 760.623C755.339 760.327 761.256 755.889 761.256 750.859C760.961 745.829 754.451 741.982 746.462 742.278Z" fill="white" fill-opacity="0.03"/>
<path d="M414.177 199.026C419.503 198.73 420.39 193.996 425.125 189.557C431.93 183.048 430.451 177.426 426.308 176.242C422.166 175.059 418.615 179.793 413.881 179.793C409.442 179.793 405.596 175.355 401.453 176.538C397.311 177.722 396.127 183.344 402.933 189.853C407.667 194.292 409.146 199.026 414.177 199.026Z" fill="white" fill-opacity="0.03"/>
<path d="M426.902 202.872C423.943 199.026 423.647 194.292 426.31 192.516C428.973 190.741 433.116 192.22 436.075 196.067C439.034 199.913 439.329 204.648 436.666 206.423C434.003 208.494 429.565 206.719 426.902 202.872Z" fill="white" fill-opacity="0.03"/>
<path d="M401.751 203.168C404.71 199.322 404.71 194.587 402.342 192.812C399.679 191.037 395.537 192.812 392.578 196.659C389.619 200.505 389.619 205.239 391.986 207.015C394.649 208.79 398.792 207.015 401.751 203.168Z" fill="white" fill-opacity="0.03"/>
<path d="M415.657 212.932C414.769 207.902 416.545 203.168 419.799 202.576C423.054 201.985 426.605 205.535 427.492 210.565C428.38 215.596 426.605 220.33 423.35 220.922C420.095 221.513 416.545 217.963 415.657 212.932Z" fill="white" fill-opacity="0.03"/>
<path d="M412.995 212.933C413.883 207.902 411.811 203.168 408.557 202.872C405.302 202.281 402.047 206.127 401.159 211.157C400.272 216.187 402.343 220.922 405.598 221.217C408.852 221.809 412.107 217.963 412.995 212.933Z" fill="white" fill-opacity="0.03"/>
<path d="M1184.67 659.725C1181.72 663.867 1184.97 667.714 1185.86 673.928C1187.04 683.1 1192.37 685.467 1195.62 682.804C1198.88 680.141 1197.4 674.52 1200.06 670.969C1202.72 667.122 1208.64 667.122 1210.12 662.98C1211.6 658.837 1208.05 654.695 1198.58 656.47C1192.37 657.358 1187.93 655.583 1184.67 659.725Z" fill="white" fill-opacity="0.03"/>
<path d="M1174.32 667.418C1179.05 667.418 1183.2 670.081 1183.2 673.04C1183.2 676.295 1179.35 678.662 1174.32 678.662C1169.58 678.662 1165.44 675.999 1165.44 673.04C1165.74 670.081 1169.58 667.418 1174.32 667.418Z" fill="white" fill-opacity="0.03"/>
<path d="M1189.11 647.298C1190.59 652.032 1194.14 654.991 1197.1 653.807C1200.06 652.92 1201.24 648.481 1199.76 643.747C1198.29 639.013 1194.73 636.35 1191.78 637.238C1188.82 638.125 1187.63 642.859 1189.11 647.298Z" fill="white" fill-opacity="0.03"/>
<path d="M1172.84 652.624C1177.28 654.991 1179.94 659.133 1178.46 662.092C1176.98 665.051 1172.25 665.643 1167.51 663.276C1163.07 660.909 1160.41 656.766 1161.89 653.807C1163.67 651.144 1168.4 650.553 1172.84 652.624Z" fill="white" fill-opacity="0.03"/>
<path d="M1174.61 650.553C1178.17 654.103 1182.9 655.287 1185.27 653.216C1187.63 650.848 1186.75 646.114 1183.2 642.564C1179.64 639.013 1174.91 637.829 1172.54 639.901C1170.18 641.972 1171.06 647.002 1174.61 650.553Z" fill="white" fill-opacity="0.03"/>
<path d="M274.223 49.8977C263.867 46.0511 257.949 54.6319 245.226 59.662C226.881 67.0592 225.105 79.1907 232.503 84.5167C239.9 89.8427 250.552 83.629 259.429 87.1797C268.305 90.4345 271.856 102.566 281.028 103.454C290.201 104.341 297.007 94.5769 288.722 76.5277C282.804 64.3962 284.283 54.0401 274.223 49.8977Z" fill="white" fill-opacity="0.03"/>
<path d="M252.625 32.736C255.288 42.7963 252.033 51.9688 245.819 53.7442C239.31 55.5195 232.209 48.714 229.546 38.6538C226.883 28.5936 230.137 19.421 236.351 17.6457C242.861 15.8704 250.258 22.6758 252.625 32.736Z" fill="white" fill-opacity="0.03"/>
<path d="M301.74 51.9689C293.16 57.5908 289.017 66.4674 292.568 72.0893C296.118 77.7112 305.883 77.7112 314.759 72.0893C323.34 66.4674 327.483 57.5908 323.932 51.9689C320.381 46.347 310.321 46.347 301.74 51.9689Z" fill="white" fill-opacity="0.03"/>
<path d="M282.212 21.7882C280.141 32.4402 272.744 39.8375 265.938 38.358C259.133 36.8786 255.286 27.4101 257.358 16.7581C259.429 6.1061 266.826 -1.29113 273.631 0.18832C280.437 1.66777 284.283 11.1362 282.212 21.7882Z" fill="white" fill-opacity="0.03"/>
<path d="M287.538 23.8593C281.916 33.0319 282.212 43.388 288.13 47.2346C294.047 50.7852 303.516 46.3469 309.138 37.1743C314.76 28.0018 314.464 17.6457 308.546 13.7991C302.628 10.2484 293.16 14.6868 287.538 23.8593Z" fill="white" fill-opacity="0.03"/>
<path d="M748.829 58.1825C753.267 50.7853 747.349 45.1634 745.574 34.8073C742.615 19.717 733.738 16.7581 728.412 21.4923C723.086 26.2265 726.637 35.3991 722.495 41.6127C718.648 48.1223 708.884 48.7141 707.108 55.5195C705.037 62.325 711.547 69.1304 726.637 65.2839C736.401 62.6209 744.095 65.2839 748.829 58.1825Z" fill="white" fill-opacity="0.03"/>
<path d="M765.103 44.2757C757.114 44.8674 750.604 41.0209 750.013 35.9908C749.717 30.9606 755.93 26.2264 763.624 25.6346C771.613 25.0429 778.122 28.8894 778.714 33.9195C779.01 39.2455 773.092 43.6839 765.103 44.2757Z" fill="white" fill-opacity="0.03"/>
<path d="M743.504 78.8948C740.545 71.4976 734.331 67.0592 729.597 69.1304C724.862 70.9058 723.383 78.5989 726.342 85.9961C729.301 93.3933 735.515 97.8317 740.249 95.7605C744.983 93.6892 746.462 86.292 743.504 78.8948Z" fill="white" fill-opacity="0.03"/>
<path d="M768.948 68.2428C761.255 64.988 756.521 58.4785 758.592 53.4484C760.663 48.4182 768.652 46.9388 776.345 50.1936C784.038 53.4484 788.772 59.9579 786.701 64.988C784.63 70.0182 776.937 71.4976 768.948 68.2428Z" fill="white" fill-opacity="0.03"/>
<path d="M766.583 72.0894C760.369 66.4675 752.38 65.2839 748.83 69.1305C745.279 73.2729 747.35 80.9661 753.564 86.588C759.778 92.2098 767.767 93.3934 771.317 89.5468C774.868 85.4044 772.797 77.7113 766.583 72.0894Z" fill="white" fill-opacity="0.03"/>
<path d="M337.838 444.318C340.205 448.164 344.644 446.685 349.97 448.164C357.959 450.236 361.805 446.685 360.622 443.134C359.438 439.288 354.408 438.992 352.337 435.441C350.266 432.186 352.041 427.156 349.082 424.493C346.123 421.83 341.389 423.606 339.613 431.595C338.43 437.217 335.471 440.471 337.838 444.318Z" fill="white" fill-opacity="0.03"/>
<path d="M340.795 455.562C342.571 451.715 345.825 449.052 348.488 450.236C351.151 451.419 351.743 455.266 350.264 459.408C348.488 463.255 345.234 465.918 342.571 464.734C339.908 463.551 339.02 459.704 340.795 455.562Z" fill="white" fill-opacity="0.03"/>
<path d="M328.963 436.625C333.401 436.921 336.952 434.849 337.248 432.186C337.543 429.523 334.289 426.86 329.85 426.565C325.412 426.269 321.861 428.34 321.565 431.003C321.565 433.962 324.82 436.329 328.963 436.625Z" fill="white" fill-opacity="0.03"/>
<path d="M328.075 451.715C331.33 448.756 335.768 447.868 337.839 450.236C339.91 452.307 338.727 456.745 335.176 459.704C331.921 462.663 327.483 463.551 325.412 461.184C323.341 459.112 324.524 454.674 328.075 451.715Z" fill="white" fill-opacity="0.03"/>
<path d="M326.889 449.644C331.032 447.869 333.695 444.318 332.511 441.655C331.327 438.992 327.185 438.104 323.043 439.88C318.9 441.655 316.237 445.206 317.421 447.869C318.308 450.532 322.451 451.419 326.889 449.644Z" fill="white" fill-opacity="0.03"/>
<path d="M1055.37 747.308C1058.33 745.237 1057.15 741.686 1058.03 737.248C1059.51 730.443 1056.55 727.78 1053.3 728.667C1050.34 729.555 1050.04 733.993 1047.38 735.769C1044.72 737.84 1040.58 736.36 1038.5 738.727C1036.43 741.095 1037.91 744.941 1044.72 746.125C1049.45 746.716 1052.12 749.379 1055.37 747.308Z" fill="white" fill-opacity="0.03"/>
<path d="M1064.25 744.349C1060.99 743.166 1058.92 740.503 1059.51 738.432C1060.4 736.36 1063.66 735.473 1066.91 736.656C1070.16 737.84 1072.24 740.503 1071.64 742.574C1071.05 744.941 1067.8 745.533 1064.25 744.349Z" fill="white" fill-opacity="0.03"/>
<path d="M1049.45 754.705C1049.45 751.155 1047.68 748.196 1045.61 748.196C1043.24 748.196 1041.46 750.859 1041.17 754.41C1041.17 757.96 1042.94 760.919 1045.01 760.919C1047.38 760.919 1049.16 758.256 1049.45 754.705Z" fill="white" fill-opacity="0.03"/>
<path d="M1061.58 755.001C1058.92 752.338 1058.33 748.788 1060.1 747.012C1061.88 745.237 1065.43 746.125 1068.09 748.788C1070.76 751.451 1071.35 755.001 1069.57 756.777C1067.8 758.552 1064.25 757.664 1061.58 755.001Z" fill="white" fill-opacity="0.03"/>
<path d="M1060.1 756.185C1058.62 752.634 1055.67 750.859 1053.3 751.747C1051.23 752.634 1050.64 756.185 1052.11 759.736C1053.59 763.286 1056.55 765.062 1058.92 764.174C1060.99 762.99 1061.58 759.44 1060.1 756.185Z" fill="white" fill-opacity="0.03"/>
<path d="M140.775 357.918C146.693 354.959 145.509 348.746 148.764 341.348C153.498 330.401 149.06 324.483 143.438 325.37C137.816 326.258 136.337 333.655 131.011 335.727C125.685 338.094 119.175 334.543 114.737 338.094C110.298 341.644 111.778 348.746 123.022 352.888C130.715 355.551 134.561 360.581 140.775 357.918Z" fill="white" fill-opacity="0.03"/>
<path d="M157.049 356.143C151.723 352.888 149.06 347.858 151.131 344.307C153.202 340.757 159.12 340.461 164.446 343.716C169.772 346.97 172.435 352.001 170.364 355.551C168.588 358.806 162.375 359.102 157.049 356.143Z" fill="white" fill-opacity="0.03"/>
<path d="M128.052 368.866C129.236 362.948 127.164 357.326 123.318 356.439C119.471 355.551 115.329 359.694 113.849 365.907C112.666 371.825 114.737 377.447 118.584 378.335C122.43 379.222 126.868 374.784 128.052 368.866Z" fill="white" fill-opacity="0.03"/>
<path d="M149.356 373.304C145.805 367.978 145.509 361.469 149.06 359.102C152.61 356.735 158.232 359.102 162.079 364.724C165.63 370.05 165.925 376.559 162.375 378.926C158.824 381.293 152.906 378.63 149.356 373.304Z" fill="white" fill-opacity="0.03"/>
<path d="M146.102 374.488C144.622 368.274 139.888 363.836 136.041 364.724C131.899 365.611 129.828 371.529 131.307 378.039C132.787 384.252 137.521 388.691 141.367 387.803C145.51 386.915 147.581 380.998 146.102 374.488Z" fill="white" fill-opacity="0.03"/>
<path d="M494.954 492.548C485.781 491.66 482.527 499.945 473.058 506.75C459.151 516.811 460.335 527.167 467.436 530.126C474.833 533.085 482.231 525.687 490.22 526.871C498.505 527.759 503.831 537.227 511.524 536.043C519.217 534.86 523.063 525.096 512.115 512.076C505.014 502.904 504.126 494.027 494.954 492.548Z" fill="white" fill-opacity="0.03"/>
<path d="M473.354 482.783C477.496 490.477 476.905 499.057 471.875 501.72C466.844 504.383 459.447 500.241 455.305 492.548C451.162 484.855 451.754 476.274 456.784 473.611C461.814 470.948 469.212 475.09 473.354 482.783Z" fill="white" fill-opacity="0.03"/>
<path d="M518.035 488.405C512.117 494.915 510.342 503.2 514.484 507.046C518.627 510.893 526.912 508.822 532.829 502.608C538.747 496.098 540.522 487.814 536.38 483.967C532.533 480.12 524.249 482.192 518.035 488.405Z" fill="white" fill-opacity="0.03"/>
<path d="M495.842 467.693C496.138 476.866 491.7 484.559 485.782 484.855C479.864 485.151 474.538 477.753 474.242 468.581C473.947 459.408 478.385 451.715 484.303 451.419C490.221 451.123 495.251 458.225 495.842 467.693Z" fill="white" fill-opacity="0.03"/>
<path d="M500.576 468.285C497.913 477.162 499.984 485.742 505.902 487.518C511.524 489.293 518.33 483.671 521.288 474.794C523.951 465.918 521.88 457.337 515.962 455.562C510.045 453.786 503.239 459.408 500.576 468.285Z" fill="white" fill-opacity="0.03"/>
<path d="M721.605 330.105C731.961 327.442 732.257 316.79 739.654 305.546C750.602 288.976 744.98 278.028 735.808 277.732C726.635 277.436 721.605 288.976 712.432 290.751C703.26 293.119 693.495 285.13 685.506 289.568C677.517 294.006 677.517 306.138 694.679 315.902C706.219 323.003 710.953 332.176 721.605 330.105Z" fill="white" fill-opacity="0.03"/>
<path d="M749.122 331.584C741.429 325.075 738.47 315.606 742.908 310.576C747.051 305.546 756.815 307.025 764.804 313.535C772.497 320.044 775.456 329.513 771.018 334.543C766.579 339.573 756.815 338.39 749.122 331.584Z" fill="white" fill-opacity="0.03"/>
<path d="M697.935 344.011C701.781 334.543 700.006 324.779 694.088 322.411C687.875 319.748 679.886 325.37 676.039 334.839C672.192 344.307 673.968 354.072 679.886 356.439C686.099 358.806 694.088 353.48 697.935 344.011Z" fill="white" fill-opacity="0.03"/>
<path d="M731.073 357.326C726.634 347.562 728.41 337.206 734.919 334.543C741.429 331.88 750.01 337.502 754.152 347.266C758.59 357.031 756.815 367.387 750.306 370.05C744.092 373.009 735.511 367.091 731.073 357.326Z" fill="white" fill-opacity="0.03"/>
<path d="M725.75 358.806C725.158 348.154 718.944 339.573 712.139 340.165C705.333 340.461 700.007 349.633 700.599 360.285C701.191 370.937 707.405 379.518 714.21 378.926C721.311 378.335 726.342 369.458 725.75 358.806Z" fill="white" fill-opacity="0.03"/>
<path d="M1049.75 44.2757C1054.19 46.0511 1056.85 42.2045 1062.18 40.1333C1070.16 36.8785 1071.05 31.8484 1067.8 29.4813C1064.54 27.1142 1060.1 29.7772 1056.26 28.2977C1052.41 26.8183 1050.93 21.4923 1047.08 21.1964C1043.24 20.6046 1039.98 25.0429 1043.83 32.7361C1046.2 37.7662 1045.61 42.2045 1049.75 44.2757Z" fill="white" fill-opacity="0.03"/>
<path d="M1059.22 51.673C1058.03 47.2347 1059.51 43.3881 1062.18 42.5005C1064.84 41.9087 1068.09 44.8676 1069.28 49.01C1070.46 53.4483 1068.98 57.2949 1066.32 58.1826C1063.36 58.7744 1060.11 56.1114 1059.22 51.673Z" fill="white" fill-opacity="0.03"/>
<path d="M1037.91 43.0922C1041.76 40.7251 1043.54 36.8785 1042.06 34.5114C1040.58 32.1443 1036.14 32.1443 1032.59 34.5114C1028.74 36.8785 1026.97 40.7251 1028.44 43.0922C1029.92 45.4593 1034.36 45.4593 1037.91 43.0922Z" fill="white" fill-opacity="0.03"/>
<path d="M1046.2 56.4072C1047.09 51.9689 1050.34 48.7141 1053.3 49.3059C1056.26 49.8977 1057.74 54.0401 1056.85 58.7743C1055.96 63.2127 1052.71 66.4674 1049.75 65.8757C1047.09 64.988 1045.31 60.8455 1046.2 56.4072Z" fill="white" fill-opacity="0.03"/>
<path d="M1044.13 55.2237C1046.49 51.3771 1046.49 46.6429 1044.13 45.1635C1041.46 43.684 1037.62 45.4594 1034.95 49.3059C1032.59 53.1525 1032.59 57.8867 1034.95 59.3662C1037.62 61.1415 1041.46 59.3662 1044.13 55.2237Z" fill="white" fill-opacity="0.03"/>
<path d="M139.888 625.698C131.012 633.095 135.746 643.451 133.971 657.654C131.012 678.662 141.368 686.355 150.245 682.509C159.121 678.662 158.825 665.347 166.814 659.133C174.507 652.624 187.527 655.879 193.148 647.89C198.77 639.901 193.148 628.361 172.14 626.882C157.938 625.402 149.061 618.597 139.888 625.698Z" fill="white" fill-opacity="0.03"/>
<path d="M112.963 636.646C123.615 639.605 130.421 647.298 128.646 654.103C126.87 660.909 116.81 664.164 106.454 661.205C95.8018 658.246 88.9963 650.553 90.7717 643.747C92.2511 636.942 102.311 633.983 112.963 636.646Z" fill="white" fill-opacity="0.03"/>
<path d="M169.911 620.664C176.928 620.302 182.16 611.144 181.596 600.21C181.032 589.275 174.886 580.704 167.868 581.066C160.85 581.428 155.618 590.586 156.183 601.521C156.747 612.455 162.893 621.026 169.911 620.664Z" fill="white" fill-opacity="0.03"/>
<path d="M118.291 603.802C126.872 611.199 130.126 621.851 125.096 627.473C120.362 633.095 109.414 631.616 100.537 623.923C91.9566 616.525 88.7018 605.873 93.7319 600.252C98.762 594.63 109.71 596.405 118.291 603.802Z" fill="white" fill-opacity="0.03"/>
<path d="M123.021 599.956C128.643 610.016 138.408 615.342 144.917 611.791C151.427 608.241 152.019 597.293 146.693 587.232C141.071 577.172 131.306 571.846 124.797 575.397C118.287 578.947 117.4 589.895 123.021 599.956Z" fill="white" fill-opacity="0.03"/>
<path d="M613.013 769.5C615.972 772.163 619.227 770.388 623.961 770.388C631.063 770.684 633.43 766.837 631.95 763.878C630.175 760.919 625.737 761.511 623.37 759.144C620.707 756.777 621.594 752.338 618.635 750.563C615.676 748.788 612.126 751.155 612.126 758.552C612.422 763.286 610.35 766.541 613.013 769.5Z" fill="white" fill-opacity="0.03"/>
<path d="M617.749 778.377C618.34 774.826 620.708 772.163 623.075 772.459C625.442 772.755 626.921 776.009 626.329 779.856C625.738 783.407 623.371 786.07 621.003 785.774C618.636 785.182 617.157 781.927 617.749 778.377Z" fill="white" fill-opacity="0.03"/>
<path d="M604.136 764.766C607.687 764.174 610.35 761.807 610.054 759.44C609.758 757.073 606.503 755.593 602.657 756.185C599.106 756.777 596.443 759.144 596.739 761.511C597.331 763.878 600.585 765.358 604.136 764.766Z" fill="white" fill-opacity="0.03"/>
<path d="M606.505 777.785C608.872 774.53 612.126 773.051 614.198 774.53C616.269 776.009 616.269 779.856 613.902 783.111C611.535 786.366 608.28 787.845 606.209 786.366C604.138 784.59 604.137 781.04 606.505 777.785Z" fill="white" fill-opacity="0.03"/>
<path d="M605.025 776.305C608.28 773.938 609.759 770.683 608.28 768.612C606.8 766.541 602.954 766.541 599.699 768.908C596.444 771.275 594.965 774.53 596.444 776.601C597.923 778.673 601.77 778.377 605.025 776.305Z" fill="white" fill-opacity="0.03"/>
<path d="M453.529 352.592C455.601 346.97 450.57 343.42 447.907 336.614C443.765 326.554 436.96 325.666 434.001 329.513C431.042 333.655 434.592 339.573 432.817 344.603C431.042 349.633 424.236 351.705 423.94 356.735C423.349 361.765 428.971 365.611 439.031 360.877C445.54 357.327 451.162 358.214 453.529 352.592Z" fill="white" fill-opacity="0.03"/>
<path d="M462.998 340.461C457.376 341.94 452.346 340.165 451.162 336.91C450.275 333.36 453.825 329.217 459.447 327.738C465.069 326.258 470.099 328.034 471.283 331.288C472.171 334.839 468.324 338.981 462.998 340.461Z" fill="white" fill-opacity="0.03"/>
<path d="M452.643 367.683C449.388 362.948 444.358 360.581 441.399 362.652C438.44 364.724 438.44 370.05 441.399 374.784C444.654 379.518 449.684 381.885 452.643 379.814C455.601 378.039 455.601 372.713 452.643 367.683Z" fill="white" fill-opacity="0.03"/>
<path d="M469.211 356.735C463.293 355.551 459.151 351.705 459.743 347.858C460.335 344.012 465.956 341.94 471.874 342.828C477.792 344.011 481.934 347.858 481.343 351.705C480.455 355.551 475.129 357.918 469.211 356.735Z" fill="white" fill-opacity="0.03"/>
<path d="M468.028 359.694C462.998 356.735 457.08 356.735 455.009 360.285C452.938 363.54 455.601 368.866 460.631 371.825C465.661 374.784 471.579 374.784 473.65 371.233C475.721 367.979 473.058 362.653 468.028 359.694Z" fill="white" fill-opacity="0.03"/>
<path d="M365.652 575.397C368.611 583.386 376.895 582.498 386.364 587.528C400.271 594.63 408.26 589.599 407.668 582.202C407.076 575.101 397.904 572.142 395.241 565.041C392.578 557.939 397.904 549.654 393.761 543.737C389.619 537.819 380.15 539.002 373.937 553.205C370.09 562.674 362.989 567.112 365.652 575.397Z" fill="white" fill-opacity="0.03"/>
<path d="M366.835 596.997C371.274 590.487 378.671 587.232 382.813 590.191C386.956 593.15 386.956 600.843 382.222 607.649C377.783 614.158 370.386 617.413 366.244 614.454C362.101 611.199 362.101 603.506 366.835 596.997Z" fill="white" fill-opacity="0.03"/>
<path d="M352.928 557.939C360.621 560.306 368.019 557.939 369.498 552.909C370.977 547.879 365.947 541.961 358.254 539.89C350.561 537.523 343.164 539.89 341.684 544.92C340.205 549.95 345.235 555.572 352.928 557.939Z" fill="white" fill-opacity="0.03"/>
<path d="M345.234 585.161C352.631 581.019 360.916 581.315 363.579 586.049C366.242 590.783 362.395 598.18 354.998 602.323C347.601 606.465 339.316 606.169 336.653 601.435C333.99 596.405 337.836 589.304 345.234 585.161Z" fill="white" fill-opacity="0.03"/>
<path d="M343.756 580.723C352.041 579.243 358.254 573.917 357.367 568.295C356.479 562.969 349.082 559.715 340.501 561.194C332.216 562.674 326.002 568 326.89 573.621C327.778 578.947 335.175 582.202 343.756 580.723Z" fill="white" fill-opacity="0.03"/>
<path d="M906.832 167.662C911.566 174.763 919.555 172.1 929.616 174.763C944.706 178.61 951.511 171.804 949.44 164.999C947.369 158.193 937.605 157.305 933.758 150.796C929.616 144.582 933.166 135.41 927.84 130.38C922.514 125.645 913.638 128.604 910.383 143.99C908.312 154.347 902.394 160.264 906.832 167.662Z" fill="white" fill-opacity="0.03"/>
<path d="M912.453 188.374C915.412 180.977 921.626 176.242 926.656 178.314C931.39 180.089 932.87 187.782 929.911 195.179C926.952 202.576 920.738 207.311 915.708 205.239C910.974 203.464 909.494 196.067 912.453 188.374Z" fill="white" fill-opacity="0.03"/>
<path d="M890.556 153.459C898.545 154.051 905.35 150.204 905.646 145.174C905.942 140.144 899.728 135.41 891.739 134.818C883.75 134.226 876.945 138.073 876.649 143.103C876.057 148.429 882.567 153.163 890.556 153.459Z" fill="white" fill-opacity="0.03"/>
<path d="M888.783 181.568C894.996 175.946 902.985 174.467 906.832 178.609C910.383 182.752 908.311 190.445 902.098 196.363C895.884 201.985 887.895 203.464 884.049 199.322C880.498 195.179 882.569 187.486 888.783 181.568Z" fill="white" fill-opacity="0.03"/>
<path d="M886.416 178.018C894.405 174.763 898.843 167.957 896.772 162.927C894.7 157.897 886.711 156.418 878.722 159.673C870.733 162.927 866.295 169.733 868.366 174.763C870.437 179.497 878.722 180.977 886.416 178.018Z" fill="white" fill-opacity="0.03"/>
<path d="M894.701 47.8265C897.068 44.5717 894.701 41.6129 894.405 36.8786C893.813 29.7773 889.967 28.002 887.304 29.7773C884.641 31.8485 885.824 35.991 883.457 38.654C881.386 41.317 876.948 41.317 875.764 44.2759C874.581 47.2347 877.244 50.7854 884.345 49.6019C888.783 49.306 892.038 50.7854 894.701 47.8265Z" fill="white" fill-opacity="0.03"/>
<path d="M902.689 42.2046C899.138 42.2046 896.179 40.1333 896.179 37.7662C896.179 35.3991 899.434 33.6238 902.985 33.6238C906.535 33.6238 909.494 35.695 909.494 38.0621C909.494 40.4292 906.239 42.2046 902.689 42.2046Z" fill="white" fill-opacity="0.03"/>
<path d="M890.854 56.9991C889.966 53.4485 887.303 51.0814 884.936 51.6731C882.569 52.2649 881.681 55.8156 882.569 59.0704C883.457 62.621 886.12 64.9882 888.487 64.3964C890.854 63.8046 892.038 60.5498 890.854 56.9991Z" fill="white" fill-opacity="0.03"/>
<path d="M903.281 53.4484C899.73 51.6731 897.955 48.4183 899.139 46.0512C900.322 43.98 904.169 43.6841 907.424 45.4594C910.974 47.2348 912.75 50.4895 911.566 52.8566C910.382 54.9279 906.832 55.2238 903.281 53.4484Z" fill="white" fill-opacity="0.03"/>
<path d="M902.097 54.9278C899.434 51.9689 895.883 51.0813 894.108 52.5607C892.333 54.0402 892.924 57.8867 895.291 60.8456C897.954 63.8045 901.505 64.6922 903.281 63.2127C905.056 61.7333 904.76 57.8867 902.097 54.9278Z" fill="white" fill-opacity="0.03"/>
<path d="M157.348 56.999C155.276 60.2538 157.939 63.2127 158.531 68.2428C159.715 75.3442 163.857 77.1195 166.52 74.7524C169.183 72.6812 167.704 68.2428 169.479 65.2839C171.254 62.325 175.989 62.0292 177.172 58.7744C178.356 55.5196 175.101 52.2648 168 54.0401C163.265 55.2237 159.715 53.7443 157.348 56.999Z" fill="white" fill-opacity="0.03"/>
<path d="M149.358 63.5085C153.204 63.5085 156.163 65.2839 156.459 67.651C156.459 70.0181 153.5 72.0893 149.949 72.3852C146.103 72.3852 143.144 70.6099 142.848 68.2428C142.552 65.8757 145.511 63.5085 149.358 63.5085Z" fill="white" fill-opacity="0.03"/>
<path d="M160.306 47.5305C161.489 51.0812 164.448 53.1524 166.815 52.5606C169.182 51.6729 169.774 48.1223 168.591 44.5716C167.407 41.0209 164.448 38.9497 162.081 39.5415C159.714 40.4291 158.826 43.9798 160.306 47.5305Z" fill="white" fill-opacity="0.03"/>
<path d="M147.878 51.9689C151.429 53.4484 153.5 56.7032 152.612 59.0703C151.725 61.4374 147.878 62.0292 144.032 60.5497C140.185 59.0703 138.41 55.8155 139.297 53.4484C140.481 51.0813 144.328 50.4895 147.878 51.9689Z" fill="white" fill-opacity="0.03"/>
<path d="M149.063 50.1936C152.022 52.8566 155.573 53.7443 157.348 51.969C159.123 50.1936 158.236 46.3471 155.277 43.6841C152.318 41.0211 148.767 40.1334 146.992 41.9087C145.217 43.98 146.104 47.5306 149.063 50.1936Z" fill="white" fill-opacity="0.03"/>
<path d="M232.797 322.708C220.962 319.749 215.044 329.809 201.729 336.91C181.904 346.97 181.312 360.581 189.893 366.203C198.77 371.529 210.014 363.244 220.074 366.499C230.43 369.162 235.46 382.477 245.816 382.477C256.172 382.477 262.682 370.642 251.438 351.409C244.041 338.094 244.337 326.258 232.797 322.708Z" fill="white" fill-opacity="0.03"/>
<path d="M206.758 305.842C210.605 316.79 208.238 327.442 201.136 330.105C194.035 332.768 185.454 325.962 181.312 315.014C177.465 304.066 179.832 293.414 186.934 290.751C194.035 288.088 202.912 294.894 206.758 305.842Z" fill="white" fill-opacity="0.03"/>
<path d="M263.569 322.116C254.397 329.217 250.846 339.573 255.284 345.491C259.723 351.409 270.966 350.225 279.843 343.42C289.016 336.318 292.566 325.962 288.128 320.045C283.69 314.127 272.742 315.014 263.569 322.116Z" fill="white" fill-opacity="0.03"/>
<path d="M238.716 290.752C237.533 302.883 230.136 312.056 222.443 311.168C214.749 310.28 209.423 299.924 210.607 287.793C211.791 275.661 219.188 266.489 226.881 267.376C234.574 268.264 239.9 278.62 238.716 290.752Z" fill="white" fill-opacity="0.03"/>
<path d="M244.632 292.527C239.306 303.475 240.49 315.014 247.591 318.565C254.692 322.116 264.753 315.902 270.079 305.25C275.405 294.302 274.221 282.762 267.12 279.212C260.018 275.365 249.958 281.579 244.632 292.527Z" fill="white" fill-opacity="0.03"/>
<path d="M823.984 756.481C824.28 751.747 819.842 750.563 816.291 746.125C810.965 739.615 805.935 740.503 804.455 744.054C803.272 747.604 807.119 751.155 806.823 755.297C806.527 759.44 802.088 762.399 802.976 765.949C803.864 769.796 808.598 771.275 814.812 765.653C819.25 761.807 823.392 761.215 823.984 756.481Z" fill="white" fill-opacity="0.03"/>
<path d="M828.126 745.533C824.576 747.9 820.137 747.9 818.658 745.533C817.179 743.166 818.954 739.319 822.505 736.952C826.055 734.585 830.494 734.585 831.973 736.952C833.452 739.615 831.677 743.166 828.126 745.533Z" fill="white" fill-opacity="0.03"/>
<path d="M826.648 767.725C823.393 765.062 819.251 764.47 817.476 766.541C815.7 768.612 816.884 772.755 820.139 775.418C823.393 778.081 827.536 778.673 829.311 776.601C831.382 774.53 829.903 770.684 826.648 767.725Z" fill="white" fill-opacity="0.03"/>
<path d="M836.116 756.185C831.678 756.777 827.535 754.705 827.239 751.747C826.943 748.788 830.198 746.125 834.932 745.533C839.371 744.941 843.513 747.012 843.809 749.971C844.105 752.93 840.85 755.593 836.116 756.185Z" fill="white" fill-opacity="0.03"/>
<path d="M836.116 758.552C831.678 757.368 827.535 758.848 826.647 761.807C826.056 764.766 829.015 768.02 833.453 768.908C837.891 770.092 842.034 768.612 842.921 765.653C843.513 762.694 840.554 759.44 836.116 758.552Z" fill="white" fill-opacity="0.03"/>
<path d="M326.89 781.927C329.849 783.703 332.216 781.632 336.358 781.04C342.572 780.152 344.051 776.601 342.276 774.53C340.501 772.163 336.654 773.347 334.287 771.571C331.92 769.796 331.624 765.949 328.961 765.062C326.298 764.174 323.339 766.541 324.523 772.755C325.41 776.897 324.227 779.856 326.89 781.927Z" fill="white" fill-opacity="0.03"/>
<path d="M332.215 788.733C332.215 785.478 333.695 782.815 335.766 782.815C337.837 782.815 339.613 785.478 339.613 788.437C339.613 791.692 338.133 794.355 336.062 794.355C333.991 794.651 332.215 791.988 332.215 788.733Z" fill="white" fill-opacity="0.03"/>
<path d="M318.9 779.264C321.859 778.377 323.93 775.714 323.339 773.938C322.747 771.867 319.788 771.275 316.533 772.163C313.574 773.051 311.503 775.714 312.095 777.489C312.687 779.56 315.941 780.152 318.9 779.264Z" fill="white" fill-opacity="0.03"/>
<path d="M322.45 789.916C323.929 786.958 326.592 785.182 328.664 786.07C330.735 786.958 331.031 790.212 329.551 793.171C328.072 796.13 325.409 797.905 323.337 797.018C321.562 796.13 320.97 792.875 322.45 789.916Z" fill="white" fill-opacity="0.03"/>
<path d="M321.008 788.783C323.46 786.381 324.242 783.204 322.756 781.687C321.269 780.169 318.077 780.885 315.625 783.287C313.173 785.688 312.391 788.865 313.877 790.382C315.364 791.9 318.556 791.184 321.008 788.783Z" fill="white" fill-opacity="0.03"/>
<path d="M153.201 197.842C152.609 201.985 156.456 203.464 159.415 207.903C163.557 214.116 168.291 213.82 169.771 210.566C171.25 207.311 167.995 203.76 168.587 200.209C169.179 196.659 173.321 194.292 173.026 190.741C172.73 187.19 168.291 185.415 162.374 190.149C157.935 193.404 154.089 193.7 153.201 197.842Z" fill="white" fill-opacity="0.03"/>
<path d="M148.467 207.311C152.018 205.535 155.865 205.831 157.048 208.198C158.232 210.565 156.16 213.82 152.61 215.596C149.059 217.371 145.212 217.075 144.029 214.708C143.141 212.341 144.917 209.086 148.467 207.311Z" fill="white" fill-opacity="0.03"/>
<path d="M160.081 189.281C161.938 187.441 161.206 183.69 158.445 180.905C155.685 178.119 151.941 177.352 150.084 179.193C148.227 181.033 148.959 184.784 151.72 187.569C154.48 190.355 158.224 191.121 160.081 189.281Z" fill="white" fill-opacity="0.03"/>
<path d="M141.958 197.25C146.1 197.25 149.651 199.322 149.651 201.985C149.651 204.648 146.396 207.015 142.254 207.015C138.111 207.015 134.561 204.944 134.561 202.281C134.561 199.322 137.815 197.25 141.958 197.25Z" fill="white" fill-opacity="0.03"/>
<path d="M142.253 194.883C146.1 196.363 149.946 195.179 150.834 192.812C151.722 190.149 149.355 187.19 145.212 185.711C141.366 184.231 137.519 185.415 136.631 187.782C136.04 190.445 138.407 193.7 142.253 194.883Z" fill="white" fill-opacity="0.03"/>
<path d="M1188.22 73.569C1184.08 67.0595 1176.98 69.4266 1167.51 66.7636C1153.9 63.2129 1147.69 69.1307 1149.46 75.3444C1151.24 81.558 1160.11 82.4457 1163.66 88.3635C1167.51 93.9854 1164.26 102.27 1168.99 106.709C1173.72 111.147 1182.01 108.484 1184.67 94.5772C1186.74 85.7005 1192.07 80.3745 1188.22 73.569Z" fill="white" fill-opacity="0.03"/>
<path d="M1183.19 54.632C1180.53 61.4375 1174.61 65.284 1170.47 63.5087C1166.03 61.7334 1164.85 54.9279 1167.51 48.1225C1170.17 41.317 1176.09 37.4705 1180.24 39.2458C1184.67 41.0211 1186.15 48.1225 1183.19 54.632Z" fill="white" fill-opacity="0.03"/>
<path d="M1203.02 86.588C1195.62 85.9962 1189.7 89.251 1189.11 93.9852C1188.82 98.7194 1194.44 102.862 1201.54 103.454C1208.94 104.045 1214.85 100.791 1215.45 96.0564C1215.74 91.3222 1210.12 87.1797 1203.02 86.588Z" fill="white" fill-opacity="0.03"/>
<path d="M1204.5 61.1417C1198.87 66.1718 1191.48 67.3553 1188.22 63.8047C1184.97 60.254 1186.74 52.8568 1192.66 47.8267C1198.28 42.7965 1205.68 41.613 1208.94 45.1637C1212.19 49.0102 1210.41 56.1116 1204.5 61.1417Z" fill="white" fill-opacity="0.03"/>
<path d="M1206.86 64.6923C1199.76 67.6512 1195.32 73.5689 1197.1 78.0073C1198.87 82.7415 1206.27 83.9251 1213.37 81.2621C1220.47 78.3032 1224.91 72.3854 1223.14 67.947C1221.07 63.2128 1213.97 61.7334 1206.86 64.6923Z" fill="white" fill-opacity="0.03"/>
<path d="M46.9781 229.502C49.3452 227.135 47.8657 224.176 48.4575 220.034C49.0493 213.82 46.0904 211.749 43.4274 212.933C40.7644 214.116 41.0603 217.963 38.9891 220.034C36.9178 222.105 33.0713 221.218 31.2959 223.585C29.8165 225.952 31.5918 229.207 37.8055 229.502C41.6521 229.798 44.3151 231.87 46.9781 229.502Z" fill="white" fill-opacity="0.03"/>
<path d="M54.6722 225.952C51.7133 225.36 49.3462 222.993 49.938 220.922C50.5297 218.85 53.1928 217.963 56.4475 218.554C59.4064 219.146 61.7735 221.513 61.1818 223.585C60.59 225.656 57.6311 226.839 54.6722 225.952Z" fill="white" fill-opacity="0.03"/>
<path d="M42.2465 236.9C41.9506 233.645 40.1752 231.278 38.104 231.574C36.0328 231.87 34.5533 234.533 34.8492 237.787C35.1451 241.042 36.9204 243.409 38.9917 243.113C41.3588 242.817 42.5423 239.859 42.2465 236.9Z" fill="white" fill-opacity="0.03"/>
<path d="M53.4894 235.716C50.8264 233.645 49.9387 230.686 51.1223 228.911C52.6017 227.135 55.5606 227.431 58.2236 229.798C60.8866 231.87 61.7743 234.828 60.5907 236.604C59.4072 238.083 56.1524 237.787 53.4894 235.716Z" fill="white" fill-opacity="0.03"/>
<path d="M52.009 236.9C50.2336 233.941 47.2747 232.461 45.4994 233.645C43.7241 234.828 43.4282 238.083 45.2035 240.746C46.9788 243.705 49.9377 245.185 51.7131 244.001C53.7843 243.113 53.7843 239.859 52.009 236.9Z" fill="white" fill-opacity="0.03"/>
<path d="M405.005 49.3058C407.076 42.7962 401.455 39.5415 398.2 31.8484C393.17 20.9005 385.772 20.0128 382.518 24.747C379.263 29.4812 383.701 35.6949 381.63 41.3168C379.855 46.9387 372.457 49.3058 372.161 54.9277C371.866 60.5496 378.079 64.3962 389.027 58.7743C396.128 54.9277 402.638 55.5195 405.005 49.3058Z" fill="white" fill-opacity="0.03"/>
<path d="M414.77 35.399C408.852 37.1743 402.935 35.6949 401.751 31.8483C400.568 28.0018 404.414 23.2675 410.332 21.4922C416.25 19.7169 422.167 21.1963 423.351 25.0429C424.83 28.8894 420.688 33.6236 414.77 35.399Z" fill="white" fill-opacity="0.03"/>
<path d="M404.414 66.1714C400.863 61.1413 395.241 58.7742 391.69 61.1413C388.436 63.5084 388.731 69.4262 392.282 74.7522C395.833 79.7823 401.455 82.1494 405.005 79.7823C408.556 77.1193 408.26 71.2015 404.414 66.1714Z" fill="white" fill-opacity="0.03"/>
<path d="M422.463 53.1524C415.953 52.2647 411.219 47.8264 411.811 43.684C412.402 39.5415 418.32 36.8785 424.83 37.7662C431.339 38.6538 436.074 43.0922 435.482 47.2346C434.89 51.673 428.972 54.0401 422.463 53.1524Z" fill="white" fill-opacity="0.03"/>
<path d="M421.28 56.407C415.362 53.1522 409.148 53.744 407.077 57.2947C405.006 61.1412 407.965 66.7631 413.882 69.722C419.8 72.9768 426.014 72.385 428.085 68.8344C430.156 65.2837 427.197 59.6618 421.28 56.407Z" fill="white" fill-opacity="0.03"/>
<path d="M339.317 301.107C329.848 301.107 327.481 309.688 318.9 317.677C306.177 328.921 308.248 339.277 315.942 341.644C323.635 344.011 330.144 335.431 338.429 336.022C346.714 336.022 352.928 344.899 360.621 342.828C368.314 341.052 370.977 330.696 358.845 318.861C350.856 310.28 348.785 301.403 339.317 301.107Z" fill="white" fill-opacity="0.03"/>
<path d="M317.126 293.414C322.156 300.516 322.452 309.096 317.718 312.351C312.984 315.606 305.291 312.351 300.26 304.954C295.23 297.853 294.934 289.272 299.669 286.017C304.107 283.058 312.096 286.313 317.126 293.414Z" fill="white" fill-opacity="0.03"/>
<path d="M362.102 294.598C356.776 301.699 356.184 309.984 360.623 313.535C365.061 317.086 373.05 314.127 378.376 307.025C383.702 299.924 384.294 291.639 379.856 288.088C375.417 284.834 367.428 287.793 362.102 294.598Z" fill="white" fill-opacity="0.03"/>
<path d="M337.544 276.253C339.023 285.425 335.177 293.71 329.259 294.598C323.341 295.486 317.423 288.68 315.944 279.508C314.465 270.335 318.311 262.05 324.229 261.162C330.443 260.275 336.36 267.08 337.544 276.253Z" fill="white" fill-opacity="0.03"/>
<path d="M342.572 276.253C340.797 285.425 344.052 293.71 349.969 294.894C355.887 296.077 362.101 289.568 363.876 280.691C365.652 271.519 362.397 263.234 356.479 262.05C350.561 260.867 344.348 267.08 342.572 276.253Z" fill="white" fill-opacity="0.03"/>
<path d="M36.6252 575.988C29.8197 573.917 25.9732 579.835 17.9841 583.682C6.14858 589.303 5.5568 597.292 10.5869 600.843C15.617 604.098 22.4225 599.364 28.6362 601.435C34.8498 603.21 37.5128 611.199 43.7265 611.199C49.9402 611.495 54.0826 604.394 47.5731 593.15C42.8388 585.161 43.4306 578.356 36.6252 575.988Z" fill="white" fill-opacity="0.03"/>
<path d="M21.534 565.632C23.6052 572.142 22.1258 578.356 17.9833 579.835C13.8409 581.314 8.81076 577.172 6.44365 570.662C4.37242 564.153 5.85187 557.939 9.99432 556.46C14.4327 554.98 19.4628 559.123 21.534 565.632Z" fill="white" fill-opacity="0.03"/>
<path d="M54.9711 575.988C49.3492 580.131 47.2779 586.049 49.6451 589.599C52.3081 593.15 58.8176 592.854 64.1436 588.712C69.7655 584.569 71.8367 578.651 69.4696 575.101C66.8066 571.55 60.2971 572.142 54.9711 575.988Z" fill="white" fill-opacity="0.03"/>
<path d="M40.7673 557.052C39.8796 564.153 35.4413 569.479 30.7071 568.887C26.2687 568.295 23.3099 562.082 24.1975 554.98C25.0852 547.879 29.5235 542.553 34.2577 543.145C38.6961 543.737 41.655 549.95 40.7673 557.052Z" fill="white" fill-opacity="0.03"/>
<path d="M44.3175 558.235C41.0627 564.449 41.6545 571.55 45.797 573.621C49.9394 575.693 55.8572 572.438 59.112 565.928C62.3667 559.715 61.775 552.613 57.6325 550.542C53.4901 548.471 47.5723 551.726 44.3175 558.235Z" fill="white" fill-opacity="0.03"/>
<path d="M940.564 776.897C945.002 778.377 947.666 774.53 952.992 771.867C960.685 768.316 961.276 762.99 958.022 760.623C954.767 758.256 950.329 761.511 946.186 760.032C942.044 758.848 940.564 753.522 936.422 753.522C932.279 753.226 929.616 757.96 933.759 765.357C936.422 770.683 936.126 775.418 940.564 776.897Z" fill="white" fill-opacity="0.03"/>
<path d="M950.328 783.999C948.849 779.856 950.032 775.714 952.695 774.826C955.358 773.938 958.613 776.601 960.092 781.04C961.572 785.182 960.388 789.324 957.725 790.212C955.062 790.804 951.808 788.141 950.328 783.999Z" fill="white" fill-opacity="0.03"/>
<path d="M928.433 776.601C931.983 773.938 933.758 770.092 931.983 767.725C930.208 765.357 926.065 765.653 922.515 768.316C918.964 770.979 917.189 774.826 918.964 777.193C920.739 779.56 924.882 779.264 928.433 776.601Z" fill="white" fill-opacity="0.03"/>
<path d="M937.902 789.325C938.493 784.59 941.452 781.336 944.411 781.631C947.37 781.927 949.441 786.07 948.554 790.804C947.666 795.538 945.003 798.793 942.044 798.497C939.085 798.201 937.014 794.059 937.902 789.325Z" fill="white" fill-opacity="0.03"/>
<path d="M935.534 788.437C937.902 784.294 937.31 779.856 934.647 778.377C931.984 776.897 928.137 779.264 925.77 783.407C923.403 787.549 923.995 791.988 926.658 793.467C929.321 794.946 933.167 792.579 935.534 788.437Z" fill="white" fill-opacity="0.03"/>
<path d="M1052.41 594.038C1048.27 597.588 1050.63 602.323 1050.04 609.128C1049.15 618.892 1053.89 622.739 1058.03 620.668C1062.17 618.596 1061.88 612.383 1065.43 609.424C1068.98 606.169 1075.19 607.649 1077.56 603.802C1080.22 599.955 1077.26 594.629 1067.5 594.038C1060.99 593.742 1056.55 590.487 1052.41 594.038Z" fill="white" fill-opacity="0.03"/>
<path d="M1039.69 599.66C1044.72 600.843 1048.27 604.394 1047.38 607.649C1046.49 610.903 1042.05 612.679 1037.02 611.495C1031.99 610.312 1028.44 606.761 1029.33 603.506C1030.22 599.955 1034.95 598.476 1039.69 599.66Z" fill="white" fill-opacity="0.03"/>
<path d="M1059.81 582.202C1060.1 587.232 1063.36 591.375 1066.61 591.079C1069.87 590.783 1072.23 586.345 1071.94 581.314C1071.64 576.284 1068.39 572.142 1065.13 572.438C1061.58 572.734 1059.22 577.172 1059.81 582.202Z" fill="white" fill-opacity="0.03"/>
<path d="M1042.05 583.977C1046.19 587.528 1047.97 592.262 1045.6 594.925C1043.53 597.588 1038.21 596.996 1034.06 593.742C1029.92 590.191 1028.15 585.457 1030.51 582.794C1032.58 579.835 1037.61 580.427 1042.05 583.977Z" fill="white" fill-opacity="0.03"/>
<path d="M1044.12 582.202C1046.79 586.936 1051.52 589.303 1054.48 587.528C1057.44 585.753 1057.74 580.427 1054.78 575.988C1052.11 571.254 1047.38 568.887 1044.42 570.662C1041.46 572.142 1041.17 577.468 1044.12 582.202Z" fill="white" fill-opacity="0.03"/>
<path d="M508.566 109.963C509.749 107.004 507.086 105.229 505.607 101.678C503.536 96.3522 499.985 95.7605 498.21 98.1276C496.73 100.199 498.505 103.454 497.618 105.821C496.73 108.484 493.179 109.371 492.884 112.034C492.588 114.697 495.547 116.769 500.873 114.106C504.423 112.33 507.382 112.922 508.566 109.963Z" fill="white" fill-opacity="0.03"/>
<path d="M513.596 103.454C510.637 104.341 507.974 103.454 507.382 101.382C506.79 99.6071 508.861 97.5358 511.82 96.6482C514.779 95.7605 517.442 96.6482 518.034 98.7194C518.33 100.791 516.259 102.862 513.596 103.454Z" fill="white" fill-opacity="0.03"/>
<path d="M507.974 117.952C506.494 115.585 503.831 114.402 502.056 115.289C500.576 116.473 500.576 119.136 502.056 121.799C503.535 124.166 506.198 125.349 507.974 124.462C509.749 123.278 509.749 120.319 507.974 117.952Z" fill="white" fill-opacity="0.03"/>
<path d="M516.851 112.034C513.892 111.443 511.525 109.371 511.82 107.3C512.116 105.229 515.075 104.045 518.034 104.933C520.993 105.525 523.36 107.596 523.064 109.667C522.768 111.739 519.809 112.626 516.851 112.034Z" fill="white" fill-opacity="0.03"/>
<path d="M516.258 113.81C513.595 112.034 510.637 112.33 509.453 114.106C508.269 115.881 509.749 118.544 512.412 120.319C515.075 122.095 518.034 121.799 519.217 120.023C520.105 117.952 518.921 115.289 516.258 113.81Z" fill="white" fill-opacity="0.03"/>
<path d="M401.751 696.119C404.414 697.599 406.485 695.528 410.332 694.64C415.953 693.161 416.841 689.906 415.066 688.13C413.29 686.355 410.036 687.539 407.669 686.355C405.301 685.172 404.71 681.325 402.343 680.733C399.68 680.141 397.312 682.509 399.088 688.13C399.975 691.681 399.088 694.64 401.751 696.119Z" fill="white" fill-opacity="0.03"/>
<path d="M407.077 702.037C406.781 699.078 407.964 696.711 410.036 696.415C412.107 696.12 413.586 698.487 414.178 701.446C414.474 704.404 413.29 706.771 411.219 707.067C409.148 707.067 407.373 704.996 407.077 702.037Z" fill="white" fill-opacity="0.03"/>
<path d="M394.057 694.344C396.72 693.161 398.2 690.793 397.608 689.018C396.72 687.243 394.057 686.947 391.394 688.13C388.731 689.314 387.252 691.681 387.843 693.456C388.435 695.232 391.394 695.824 394.057 694.344Z" fill="white" fill-opacity="0.03"/>
<path d="M398.199 703.813C399.382 700.854 401.75 699.078 403.525 699.67C405.3 700.262 406.188 703.221 405.004 706.18C403.821 709.139 401.454 710.914 399.678 710.322C397.903 709.73 397.311 706.772 398.199 703.813Z" fill="white" fill-opacity="0.03"/>
<path d="M397.015 702.925C399.087 700.558 399.382 697.599 397.903 696.415C396.423 695.232 393.465 696.119 391.393 698.487C389.322 700.854 389.026 703.813 390.506 704.996C391.985 706.18 394.944 705.292 397.015 702.925Z" fill="white" fill-opacity="0.03"/>
<path d="M555.614 249.031C553.247 252.286 555.91 255.541 556.502 260.571C557.39 267.968 561.532 269.743 564.491 267.672C567.154 265.601 565.971 260.867 568.042 258.204C570.113 255.245 574.847 255.245 576.031 251.99C577.214 248.735 574.255 245.184 566.858 246.664C561.828 247.256 558.277 245.776 555.614 249.031Z" fill="white" fill-opacity="0.03"/>
<path d="M547.328 255.245C551.175 255.245 554.43 257.316 554.43 259.683C554.43 262.05 551.175 264.121 547.328 264.121C543.482 264.121 540.227 262.05 540.227 259.683C540.227 257.316 543.482 255.245 547.328 255.245Z" fill="white" fill-opacity="0.03"/>
<path d="M559.165 239.267C560.348 243.113 563.307 245.48 565.674 244.593C568.041 243.705 568.929 240.154 567.745 236.604C566.562 232.757 563.603 230.39 561.236 231.278C558.869 231.869 557.981 235.42 559.165 239.267Z" fill="white" fill-opacity="0.03"/>
<path d="M546.146 243.409C549.697 245.184 551.768 248.735 550.584 251.102C549.401 253.469 545.554 254.061 541.708 251.99C538.157 250.215 536.086 246.664 537.269 244.297C538.453 241.93 542.595 241.634 546.146 243.409Z" fill="white" fill-opacity="0.03"/>
<path d="M547.329 241.634C550.288 244.593 554.134 245.48 555.91 243.705C557.685 241.93 557.093 238.083 554.134 235.124C551.175 232.165 547.329 231.278 545.554 233.053C543.778 234.828 544.666 238.675 547.329 241.634Z" fill="white" fill-opacity="0.03"/>
<path d="M638.46 636.054C640.236 644.043 648.225 644.339 656.805 650.257C669.233 658.838 677.518 654.991 677.814 648.186C678.11 641.38 669.825 637.238 668.345 630.136C666.866 623.035 673.079 615.934 669.825 609.72C666.57 603.506 657.397 603.21 649.704 615.934C644.378 624.514 636.981 628.065 638.46 636.054Z" fill="white" fill-opacity="0.03"/>
<path d="M636.687 656.766C642.013 651.144 649.114 649.073 652.96 652.624C656.807 655.879 655.328 663.276 650.297 669.194C644.971 674.815 637.87 676.887 634.024 673.336C630.177 670.081 631.361 662.684 636.687 656.766Z" fill="white" fill-opacity="0.03"/>
<path d="M628.697 617.709C635.799 620.964 643.196 619.78 645.267 615.342C647.338 610.903 643.196 604.394 636.094 601.139C628.993 597.884 621.596 599.068 619.525 603.506C617.453 608.24 621.596 614.454 628.697 617.709Z" fill="white" fill-opacity="0.03"/>
<path d="M617.452 642.564C625.145 639.605 632.838 641.084 634.91 645.818C636.981 650.849 632.247 657.062 624.554 660.317C616.86 663.276 609.167 661.796 607.096 657.062C605.321 652.032 609.759 645.522 617.452 642.564Z" fill="white" fill-opacity="0.03"/>
<path d="M616.565 638.421C624.85 638.125 631.36 633.687 631.064 628.361C631.064 623.035 624.259 618.892 615.974 619.188C607.689 619.484 601.179 623.923 601.475 629.249C601.771 634.575 608.576 638.717 616.565 638.421Z" fill="white" fill-opacity="0.03"/>
<path d="M776.641 594.038C780.192 592.262 779.304 588.416 780.784 583.978C783.151 577.172 780.192 573.917 777.233 574.805C773.978 575.397 773.387 579.835 770.132 581.315C767.173 583.09 763.031 581.019 760.663 583.386C758.296 585.753 759.184 589.895 766.285 591.671C770.724 592.854 773.091 595.813 776.641 594.038Z" fill="white" fill-opacity="0.03"/>
<path d="M786.11 592.262C782.856 590.487 781.08 587.528 781.968 585.457C783.152 583.386 786.406 583.09 789.661 584.569C792.916 586.345 794.691 589.304 793.804 591.375C792.916 593.446 789.365 594.038 786.11 592.262Z" fill="white" fill-opacity="0.03"/>
<path d="M769.538 600.843C770.13 597.293 768.651 594.038 766.284 593.742C763.916 593.446 761.549 596.109 760.958 599.66C760.366 603.21 761.845 606.465 764.212 606.761C766.58 607.353 768.947 604.69 769.538 600.843Z" fill="white" fill-opacity="0.03"/>
<path d="M782.264 602.914C779.897 599.956 779.601 596.109 781.672 594.63C783.743 593.15 787.294 594.334 789.365 597.293C791.732 600.252 792.028 604.098 789.957 605.577C788.182 607.057 784.631 605.873 782.264 602.914Z" fill="white" fill-opacity="0.03"/>
<path d="M780.488 603.802C779.304 600.251 776.345 597.588 773.978 598.476C771.611 599.364 770.723 602.914 771.611 606.465C772.795 610.016 775.753 612.679 778.121 611.791C780.488 610.903 781.671 607.353 780.488 603.802Z" fill="white" fill-opacity="0.03"/>
<path d="M818.364 434.554C814.222 441.951 820.435 447.869 822.802 458.225C826.353 473.315 835.526 475.978 840.556 470.948C845.586 465.918 841.739 456.745 845.586 450.532C849.136 444.022 858.901 442.543 860.676 435.737C862.451 428.636 855.35 422.422 840.556 426.86C830.791 429.523 822.802 427.156 818.364 434.554Z" fill="white" fill-opacity="0.03"/>
<path d="M802.68 449.348C810.669 448.46 817.474 452.011 818.066 457.041C818.658 462.071 812.74 467.101 804.751 467.989C796.762 468.877 789.957 465.326 789.365 460.296C788.773 454.97 794.691 450.236 802.68 449.348Z" fill="white" fill-opacity="0.03"/>
<path d="M823.096 413.545C826.351 420.943 832.861 425.085 837.595 423.014C842.329 420.943 843.513 413.249 840.258 405.852C837.003 398.455 830.493 394.313 825.759 396.384C821.025 398.455 819.841 406.148 823.096 413.545Z" fill="white" fill-opacity="0.03"/>
<path d="M797.651 425.381C805.64 428.34 810.67 434.849 808.895 439.88C807.12 444.91 799.131 446.981 791.142 444.022C783.153 441.063 778.123 434.554 779.898 429.523C781.673 424.197 789.662 422.422 797.651 425.381Z" fill="white" fill-opacity="0.03"/>
<path d="M799.722 421.534C806.232 426.86 814.221 428.044 817.772 423.902C821.322 419.759 818.955 411.77 812.446 406.444C805.936 401.118 797.947 399.935 794.396 404.077C790.846 408.219 793.213 415.913 799.722 421.534Z" fill="white" fill-opacity="0.03"/>
<path d="M1036.73 156.122C1031.4 164.111 1037.32 170.916 1038.8 182.752C1041.17 199.913 1050.93 204.056 1057.15 199.026C1063.36 193.996 1060.1 183.639 1065.43 176.834C1070.16 170.029 1081.11 169.733 1084.07 162.04C1087.03 154.642 1079.93 146.357 1062.77 149.612C1051.23 151.979 1042.65 148.725 1036.73 156.122Z" fill="white" fill-opacity="0.03"/>
<path d="M1017.5 170.62C1026.37 170.62 1033.77 175.355 1033.77 180.976C1033.77 186.894 1026.37 191.333 1017.5 191.628C1008.62 191.628 1001.22 186.894 1001.22 181.272C1001.22 175.355 1008.62 170.916 1017.5 170.62Z" fill="white" fill-opacity="0.03"/>
<path d="M1044.72 133.338C1047.38 141.919 1054.19 147.245 1059.81 145.47C1065.43 143.695 1067.5 135.41 1064.84 126.829C1062.18 118.248 1055.37 112.922 1049.75 114.697C1044.13 116.473 1041.76 124.758 1044.72 133.338Z" fill="white" fill-opacity="0.03"/>
<path d="M1014.83 143.399C1023.41 147.541 1028.15 155.234 1025.49 160.856C1022.82 166.478 1013.65 167.366 1005.36 163.223C996.784 159.081 992.05 151.388 994.713 145.766C997.376 140.44 1006.25 139.256 1014.83 143.399Z" fill="white" fill-opacity="0.03"/>
<path d="M1017.79 139.256C1024.3 146.062 1033.18 148.133 1037.62 143.99C1042.05 139.848 1040.28 130.675 1033.77 123.87C1027.26 117.064 1018.38 114.993 1013.94 119.136C1009.51 123.574 1011.28 132.451 1017.79 139.256Z" fill="white" fill-opacity="0.03"/>
<path d="M1187.93 228.911C1185.86 224.176 1181.12 224.768 1175.2 221.809C1166.92 217.667 1161.89 220.922 1162.48 225.064C1162.78 229.502 1168.4 230.982 1169.88 235.42C1171.65 239.563 1168.4 244.593 1170.77 248.143C1173.43 251.694 1179.05 250.806 1182.6 242.226C1185.56 236.604 1189.7 233.645 1187.93 228.911Z" fill="white" fill-opacity="0.03"/>
<path d="M1187.34 215.891C1184.67 220.034 1180.23 221.809 1177.87 220.034C1175.2 218.259 1175.2 213.524 1177.87 209.678C1180.53 205.535 1184.97 203.76 1187.34 205.535C1190 207.015 1190 211.749 1187.34 215.891Z" fill="white" fill-opacity="0.03"/>
<path d="M1195.92 239.267C1191.18 238.083 1186.74 239.267 1185.86 242.226C1184.97 245.185 1188.22 248.735 1192.66 249.919C1197.4 251.102 1201.83 249.919 1202.72 246.96C1203.61 244.001 1200.65 240.45 1195.92 239.267Z" fill="white" fill-opacity="0.03"/>
<path d="M1200.36 222.697C1195.92 225.36 1190.89 225.064 1189.41 222.401C1187.63 219.442 1190 215.3 1194.44 212.637C1198.88 209.974 1203.91 210.27 1205.39 212.933C1207.16 215.891 1204.79 220.33 1200.36 222.697Z" fill="white" fill-opacity="0.03"/>
<path d="M1201.24 225.36C1196.21 226.248 1192.66 229.502 1193.25 232.757C1193.85 236.012 1198.28 237.787 1203.31 236.9C1208.34 236.012 1211.89 232.757 1211.3 229.502C1211.01 226.248 1206.27 224.472 1201.24 225.36Z" fill="white" fill-opacity="0.03"/>
<path d="M792.62 204.352C789.957 206.423 791.141 209.382 790.253 213.228C789.069 219.146 791.732 221.513 794.395 220.626C797.058 219.738 797.058 215.891 799.426 214.412C801.793 212.637 805.343 213.82 807.119 211.749C808.894 209.678 807.414 206.127 801.497 205.239C797.65 204.648 795.283 202.576 792.62 204.352Z" fill="white" fill-opacity="0.03"/>
<path d="M784.631 207.015C787.59 207.902 789.365 210.27 788.773 212.341C788.181 214.116 785.223 215.004 782.264 213.82C779.305 212.933 777.529 210.565 778.121 208.494C779.009 206.719 781.672 206.127 784.631 207.015Z" fill="white" fill-opacity="0.03"/>
<path d="M797.649 197.842C797.649 200.801 799.129 203.464 801.2 203.464C803.271 203.464 804.751 201.097 805.047 197.842C805.047 194.883 803.567 192.22 801.496 192.22C799.425 192.516 797.649 194.883 797.649 197.842Z" fill="white" fill-opacity="0.03"/>
<path d="M787 197.842C789.367 200.209 789.959 203.168 788.479 204.648C787 206.127 784.041 205.535 781.674 203.168C779.307 200.801 778.715 197.842 780.194 196.363C781.378 194.883 784.633 195.475 787 197.842Z" fill="white" fill-opacity="0.03"/>
<path d="M788.181 196.955C789.661 199.913 792.324 201.689 794.099 200.801C795.874 199.913 796.466 196.955 794.987 193.996C793.507 191.037 790.844 189.261 789.069 190.149C787.294 190.741 786.998 193.996 788.181 196.955Z" fill="white" fill-opacity="0.03"/>
<path d="M914.231 530.717C920.149 536.635 926.954 532.493 937.31 533.085C952.401 533.972 957.431 526.279 954.176 520.065C950.921 513.852 941.453 515.035 936.719 509.709C931.688 504.679 933.168 495.211 927.25 491.66C921.332 488.109 913.343 492.844 913.343 507.638C912.752 517.994 908.609 524.8 914.231 530.717Z" fill="white" fill-opacity="0.03"/>
<path d="M923.403 549.358C924.882 541.665 929.912 536.339 934.942 537.227C939.973 538.115 942.636 544.92 941.156 552.613C939.677 560.306 934.647 565.632 929.616 564.745C924.882 563.857 921.923 557.051 923.403 549.358Z" fill="white" fill-opacity="0.03"/>
<path d="M895.886 520.657C903.579 519.77 909.201 514.739 908.609 510.005C908.017 504.975 901.212 501.72 893.519 502.904C885.826 503.792 880.204 508.822 880.796 513.556C881.387 518.29 888.193 521.545 895.886 520.657Z" fill="white" fill-opacity="0.03"/>
<path d="M899.732 547.287C904.466 540.778 911.864 537.819 916.302 541.074C920.444 544.328 920.148 552.021 915.118 558.531C910.384 565.041 902.987 568 898.549 564.745C894.406 561.786 894.702 554.093 899.732 547.287Z" fill="white" fill-opacity="0.03"/>
<path d="M896.773 544.328C903.579 539.89 906.834 532.493 903.875 528.35C900.916 524.208 893.223 523.912 886.417 528.646C879.612 533.38 876.357 540.482 879.316 544.624C881.979 549.062 889.968 548.767 896.773 544.328Z" fill="white" fill-opacity="0.03"/>
<path d="M664.795 494.323C666.57 484.559 658.285 480.416 652.072 469.764C642.899 454.378 631.951 454.378 628.105 461.775C624.258 469.173 631.655 477.753 629.288 486.334C627.513 494.915 617.157 499.649 617.749 507.934C618.044 516.219 628.105 520.953 642.899 510.893C652.959 504.087 662.428 503.792 664.795 494.323Z" fill="white" fill-opacity="0.03"/>
<path d="M677.222 472.723C668.641 476.274 659.764 474.794 657.397 469.468C655.03 463.846 660.06 456.449 668.641 452.899C677.221 449.348 686.098 450.827 688.465 456.153C690.832 461.479 685.802 468.877 677.222 472.723Z" fill="white" fill-opacity="0.03"/>
<path d="M666.57 519.178C660.356 512.076 651.775 509.709 647.337 513.556C642.899 517.402 644.082 526.279 650.296 533.38C656.509 540.482 665.09 542.849 669.529 539.002C674.263 534.86 672.783 525.983 666.57 519.178Z" fill="white" fill-opacity="0.03"/>
<path d="M690.833 497.578C681.069 497.282 673.376 491.66 673.672 485.446C673.968 479.233 682.253 474.499 692.017 474.794C701.781 475.09 709.474 480.712 709.179 486.926C708.883 493.14 700.894 497.874 690.833 497.578Z" fill="white" fill-opacity="0.03"/>
<path d="M689.946 502.608C680.773 498.761 671.601 500.537 669.234 506.159C666.867 512.076 672.193 519.77 681.069 523.616C690.242 527.463 699.414 525.687 701.782 520.065C704.149 514.148 698.823 506.159 689.946 502.608Z" fill="white" fill-opacity="0.03"/>
</svg>
